<svg width="900" height="900" viewBox="-450,-450,900,900"><g font-size="10" font-family="sans-serif"><g><path fill="#1f77b4" fill-opacity="0.5" d="M1.8982025386783973e-14,-310A310,310,0,0,1,233.54330758631536,-203.8566248166679L226.00965250288584,-197.28060466129153A300,300,0,0,0,1.8369701987210297e-14,-300Z"></path><text dy="0.35em" transform="
        rotate(-65.55862213812651)
        translate(315)
        
      ">Atelectasis</text><title>Atelectasis
        108139 outgoing →
        108139 incoming ←</title></g><g><path fill="#aec7e8" fill-opacity="0.5" d="M240.20753584032548,-195.96004624800116A310,310,0,0,1,309.99077136568764,-2.3920008582678585L299.9910690635687,-2.314839540259218A300,300,0,0,0,232.4589056519279,-189.6387544335495Z"></path><text dy="0.35em" transform="
        rotate(-19.824745566325433)
        translate(315)
        
      ">Cardiomegaly</text><title>Cardiomegaly
        85757 outgoing →
        85757 incoming ←</title></g><g><path fill="#ffbb78" fill-opacity="0.5" d="M309.8982888132464,7.940440203270714A310,310,0,0,1,302.0364276516164,69.81401271557087L292.2933170822094,67.56194778926212A300,300,0,0,0,299.9015698192707,7.684296970907142Z"></path><text dy="0.35em" transform="
        rotate(7.241387054416549)
        translate(315)
        
      ">Consolidation</text><title>Consolidation
        25545 outgoing →
        25545 incoming ←</title></g><g><path fill="#2ca02c" fill-opacity="0.5" d="M299.54194234210127,79.84124734697784A310,310,0,0,1,189.5514642733866,245.29623395359138L183.43690090972896,237.38345221315294A300,300,0,0,0,289.87929904074315,77.26572323901081Z"></path><text dy="0.35em" transform="
        rotate(33.61500003128559)
        translate(315)
        
      ">Edema</text><title>Edema
        82693 outgoing →
        82693 incoming ←</title></g><g><path fill="#d62728" fill-opacity="0.5" d="M181.2711406129532,251.47718302239463A310,310,0,0,1,147.60317599118156,272.60466327140534L142.84178321727248,263.8109644561987A300,300,0,0,0,175.42368446414824,243.36501582812383Z"></path><text dy="0.35em" transform="
        rotate(57.89071244208765)
        translate(315)
        
      ">Enlarged Cardiomediastinum</text><title>Enlarged Cardiomediastinum
        16263 outgoing →
        16263 incoming ←</title></g><g><path fill="#ff9896" fill-opacity="0.5" d="M138.43604236152163,277.37242504488256A310,310,0,0,1,123.64373003334471,284.27491627549796L119.65522261291423,275.10475768596575A300,300,0,0,0,133.97036357566608,268.4249274627896Z"></path><text dy="0.35em" transform="
        rotate(64.98497632549538)
        translate(315)
        
      ">Fracture</text><title>Fracture
        6675 outgoing →
        6675 incoming ←</title></g><g><path fill="#c5b0d5" fill-opacity="0.5" d="M114.10096957568554,288.23769486638713A310,310,0,0,1,90.27126616603911,296.56550457661143L87.35928983810237,286.99887539672073A300,300,0,0,0,110.4202931377602,278.9397047094069Z"></path><text dy="0.35em" transform="
        rotate(70.73691835349788)
        translate(315)
        
      ">Lung Lesion</text><title>Lung Lesion
        10324 outgoing →
        10324 incoming ←</title></g><g><path fill="#8c564b" fill-opacity="0.5" d="M80.33743383636751,299.4092462242729A310,310,0,0,1,-142.64760578704315,275.230195587665L-138.04607011649338,266.3518021816113A300,300,0,0,0,77.74590371261372,289.7508834428447Z"></path><text dy="0.35em" transform="
        rotate(96.188603253553)
        translate(315)
        rotate(180)
      " text-anchor="end">Lung Opacity</text><title>Lung Opacity
        93835 outgoing →
        93835 incoming ←</title></g><g><path fill="#e377c2" fill-opacity="0.5" d="M-151.74100545021074,270.3232643798146A310,310,0,0,1,-172.29157854306933,257.71226583757584L-166.7337856868413,249.39896693958954A300,300,0,0,0,-146.84613430665556,261.6031590772399Z"></path><text dy="0.35em" transform="
        rotate(121.53564174528131)
        translate(315)
        rotate(180)
      " text-anchor="end">No Finding</text><title>No Finding
        9861 outgoing →
        9861 incoming ←</title></g><g><path fill="#f7b6d2" fill-opacity="0.5" d="M-180.78468799501465,251.8271164639448A310,310,0,0,1,-309.71630664108585,13.259313730539027L-299.7254580397605,12.831593932779704A300,300,0,0,0,-174.9529238661432,243.70366109414013Z"></path><text dy="0.35em" transform="
        rotate(151.6114321916801)
        translate(315)
        rotate(180)
      " text-anchor="end">Pleural Effusion</text><title>Pleural Effusion
        114757 outgoing →
        114757 incoming ←</title></g><g><path fill="#c7c7c7" fill-opacity="0.5" d="M-309.98615323888663,2.9299829619786406A310,310,0,0,1,-309.93979928436255,-6.109076818069103L-299.94174124293147,-5.912009823937842A300,300,0,0,0,-299.9865999086,2.8354673825599748Z"></path><text dy="0.35em" transform="
        rotate(180.2938206783934)
        translate(315)
        rotate(180)
      " text-anchor="end">Pleural Other</text><title>Pleural Other
        3696 outgoing →
        3696 incoming ←</title></g><g><path fill="#bcbd22" fill-opacity="0.5" d="M-309.56402826411727,-16.43509674120584A310,310,0,0,1,-296.0697013730138,-91.8843399546104L-286.5190658448521,-88.92032898833264A300,300,0,0,0,-299.5780918685006,-15.9049323301992Z"></path><text dy="0.35em" transform="
        rotate(190.1403077026111)
        translate(315)
        rotate(180)
      " text-anchor="end">Pneumonia</text><title>Pneumonia
        31419 outgoing →
        31419 incoming ←</title></g><g><path fill="#17becf" fill-opacity="0.5" d="M-292.842989258897,-101.7004603820137A310,310,0,0,1,-274.45069556473766,-144.14165152388014L-265.59744732071385,-139.49192082956142A300,300,0,0,0,-283.3964412182874,-98.41980036969069Z"></path><text dy="0.35em" transform="
        rotate(203.42995538438782)
        translate(315)
        rotate(180)
      " text-anchor="end">Pneumothorax</text><title>Pneumothorax
        18930 outgoing →
        18930 incoming ←</title></g><g><path fill="#9edae5" fill-opacity="0.5" d="M-269.4944050697902,-153.20824271585337A310,310,0,0,1,-10.331419859390339,-309.82779372368935L-9.99814825102291,-299.83334876486066A300,300,0,0,0,-260.8010371643131,-148.26604133792264Z"></path><text dy="0.35em" transform="
        rotate(238.8542395816387)
        translate(315)
        rotate(180)
      " text-anchor="end">Support Devices</text><title>Support Devices
        129352 outgoing →
        129352 incoming ←</title></g></g><g><path fill="#1f77b4" fill-opacity="0.5" d="M0.49833310262351865,-298.99958472231833A299,299,0,0,1,27.39454489568758,-297.7424036141949Q0,0,-286.3885696615293,38.76321925773672L-297.803454511438,26.722695991494952L-288.714521729446,12.842310638558377Q0,0,0.49833310262351865,-298.99958472231833Z" style="mix-blend-mode: multiply;"><title>Atelectasis → Pleural Effusion 23681</title></path><path fill="#f7b6d2" fill-opacity="0.5" d="M-174.7743239449531,242.6003620969775A299,299,0,0,1,-195.8901831877453,225.89386032088518Q0,0,199.3946794391335,-209.19551097326442L215.83010134765658,-206.92599486835934L217.4055846944629,-190.4095894214856Q0,0,-174.7743239449531,242.6003620969775Z" style="mix-blend-mode: multiply;"><title>Pleural Effusion → Atelectasis 23681</title></path><path fill="#f7b6d2" fill-opacity="0.5" d="M-196.64207304995458,225.2396392880621A299,299,0,0,1,-215.8007546008771,206.95660007279795Q0,0,-35.629325552116036,-286.7953123060092L-23.68575623125342,-298.06037132056593L-10.112934980650175,-288.8230055692883Q0,0,-196.64207304995458,225.2396392880621Z" style="mix-blend-mode: multiply;"><title>Pleural Effusion → Support Devices 23305</title></path><path fill="#9edae5" fill-opacity="0.5" d="M-259.685053102953,-148.20483526159484A299,299,0,0,1,-245.55280090052932,-170.6013539509725Q0,0,-281.6206109010608,64.8909201330458L-294.05256097799185,54.167253782007215L-286.25776812381315,39.717630704426654Q0,0,-259.685053102953,-148.20483526159484Z" style="mix-blend-mode: multiply;"><title>Support Devices → Pleural Effusion 23305</title></path><path fill="#1f77b4" fill-opacity="0.5" d="M28.386865544711366,-297.6494345107117A299,299,0,0,1,53.480359541722855,-294.17826422645174Q0,0,-60.72021435244786,-282.549209110542L-50.38137124371037,-294.7248164501989L-36.58511021561486,-286.6749548016208Q0,0,28.386865544711366,-297.6494345107117Z" style="mix-blend-mode: multiply;"><title>Atelectasis → Support Devices 22329</title></path><path fill="#9edae5" fill-opacity="0.5" d="M-244.9827665928229,-171.41891398712818A299,299,0,0,1,-229.59326915066944,-191.5409375582887Q0,0,180.2190133278298,-225.92500356344692L196.18937472123457,-225.63406047512197L198.69625461335878,-209.85899647769045Q0,0,-244.9827665928229,-171.41891398712818Z" style="mix-blend-mode: multiply;"><title>Support Devices → Atelectasis 22329</title></path><path fill="#aec7e8" fill-opacity="0.5" d="M231.9987317460185,-188.62022285067675A299,299,0,0,1,245.17398037940438,-171.14531645627767Q0,0,-82.14879535675944,-277.0786448310899L-74.44319134122033,-289.58454942025907L-61.66170597114136,-282.3452390544748Q0,0,231.9987317460185,-188.62022285067675Z" style="mix-blend-mode: multiply;"><title>Cardiomegaly → Support Devices 19404</title></path><path fill="#9edae5" fill-opacity="0.5" d="M-228.95352502417848,-192.30518292288141A299,299,0,0,1,-214.2739788616506,-208.53695591620428Q0,0,288.01482215119887,-23.842445789249275L298.68387489340824,-13.745649444781895L288.98727855262774,-2.7116110978457657Q0,0,-228.95352502417848,-192.30518292288141Z" style="mix-blend-mode: multiply;"><title>Support Devices → Cardiomegaly 19404</title></path><path fill="#1f77b4" fill-opacity="0.5" d="M54.46065482706339,-293.99836236926126A299,299,0,0,1,75.50560548293147,-289.30935612360673Q0,0,-113.70551685744553,265.6916548109503L-127.47450863219291,270.4648769230138L-132.55655376066017,256.80685359837497Q0,0,54.46065482706339,-293.99836236926126Z" style="mix-blend-mode: multiply;"><title>Atelectasis → Lung Opacity 19129</title></path><path fill="#8c564b" fill-opacity="0.5" d="M77.00533489066294,288.9137905991627A299,299,0,0,1,55.984990838560165,293.71190102004095Q0,0,162.67418718595724,-238.86839226525586L177.10407355155368,-240.90485078438303L179.46493016140263,-226.5244773576641Q0,0,77.00533489066294,288.9137905991627Z" style="mix-blend-mode: multiply;"><title>Lung Opacity → Atelectasis 19129</title></path><path fill="#8c564b" fill-opacity="0.5" d="M55.00564195408987,293.8968855793108A299,299,0,0,1,35.39391281238794,296.89774491536485Q0,0,-101.2460769623905,-270.68474633736884L-95.40041721354777,-283.3721235327869L-83.07193274739497,-276.8032766959457Q0,0,55.00564195408987,293.8968855793108Z" style="mix-blend-mode: multiply;"><title>Lung Opacity → Support Devices 17669</title></path><path fill="#9edae5" fill-opacity="0.5" d="M-213.57766655263632,-209.25004265216026A299,299,0,0,1,-199.23045217152782,-222.95341873927063Q0,0,-94.92571965716107,272.96539661204326L-107.52588211579972,278.99674671081584L-112.81924795141573,266.0691964352074Q0,0,-213.57766655263632,-209.25004265216026Z" style="mix-blend-mode: multiply;"><title>Support Devices → Lung Opacity 17669</title></path><path fill="#2ca02c" fill-opacity="0.5" d="M288.78428655063595,77.48958537403703A299,299,0,0,1,283.06624385357037,96.30421377401434Q0,0,-276.4671126430433,84.1839392450768L-288.7428104566293,77.64399145849626L-281.4027436770109,65.82929325953997Q0,0,288.78428655063595,77.48958537403703Z" style="mix-blend-mode: multiply;"><title>Edema → Pleural Effusion 17520</title></path><path fill="#f7b6d2" fill-opacity="0.5" d="M-216.4894097649728,206.23611579840642A299,299,0,0,1,-229.5774187496303,191.55993526898283Q0,0,191.72082948369732,216.25014113771826L190.8903746999443,230.13444950053625L177.0917679220306,228.3845566894786Q0,0,-216.4894097649728,206.23611579840642Z" style="mix-blend-mode: multiply;"><title>Pleural Effusion → Edema 17520</title></path><path fill="#aec7e8" fill-opacity="0.5" d="M245.7431016347324,-170.3271205619985A299,299,0,0,1,255.53151329543974,-155.25670907546154Q0,0,-270.57354753992234,101.54287454893813L-282.96653938972815,96.59677834069531L-276.1849641048987,85.1050268925157Q0,0,245.7431016347324,-170.3271205619985Z" style="mix-blend-mode: multiply;"><title>Cardiomegaly → Pleural Effusion 16083</title></path><path fill="#f7b6d2" fill-opacity="0.5" d="M-230.21467525580223,190.7936144027507A299,299,0,0,1,-241.26063797669192,176.6190945596755Q0,0,285.9237379914764,-42.05491710824739L296.9912004755346,-34.60096588392935L287.93374739821314,-24.802360960642137Q0,0,-230.21467525580223,190.7936144027507Z" style="mix-blend-mode: multiply;"><title>Pleural Effusion → Cardiomegaly 16083</title></path><path fill="#8c564b" fill-opacity="0.5" d="M34.404058862704254,297.01407497586973A299,299,0,0,1,16.815867427920576,298.52676027895154Q0,0,-263.71685453520166,118.21345369313632L-276.33353939852475,114.19621273704296L-270.23356873325,102.44422057730647Q0,0,34.404058862704254,297.01407497586973Z" style="mix-blend-mode: multiply;"><title>Lung Opacity → Pleural Effusion 15814</title></path><path fill="#f7b6d2" fill-opacity="0.5" d="M-241.84802686601347,175.81391270606554A299,299,0,0,1,-251.8021361603028,161.23487285667557Q0,0,-77.72386615042045,278.3522958961027L-88.87958908472729,285.4845331084156L-94.01530932213731,273.2802986185847Q0,0,-241.84802686601347,175.81391270606554Z" style="mix-blend-mode: multiply;"><title>Pleural Effusion → Lung Opacity 15814</title></path><path fill="#2ca02c" fill-opacity="0.5" d="M282.74365781333955,97.2472311499569A299,299,0,0,1,276.7280935792204,113.23675297362708Q0,0,-117.4212404342712,-264.0705441636327L-113.62966794194608,-276.56698747935025L-102.14779530160477,-270.34575623638233Q0,0,282.74365781333955,97.2472311499569Z" style="mix-blend-mode: multiply;"><title>Edema → Support Devices 15331</title></path><path fill="#9edae5" fill-opacity="0.5" d="M-198.48616865049806,-223.61628038773483A299,299,0,0,1,-185.39085665925748,-234.58736169526833Q0,0,204.44054602110444,204.26713671707617L205.39085725063308,217.29149950665362L192.44059683787992,215.60987150100658Q0,0,-198.48616865049806,-223.61628038773483Z" style="mix-blend-mode: multiply;"><title>Support Devices → Edema 15331</title></path><path fill="#1f77b4" fill-opacity="0.5" d="M76.46954874228668,-289.0560639653682A299,299,0,0,1,91.86519635318491,-284.5378458113978Q0,0,283.0634434354802,-58.27595550867157L294.3702993115375,-52.41304115614564L285.78196673030675,-43.00776083171324Q0,0,76.46954874228668,-289.0560639653682Z" style="mix-blend-mode: multiply;"><title>Atelectasis → Cardiomegaly 14450</title></path><path fill="#aec7e8" fill-opacity="0.5" d="M256.04761508244655,-154.40407640535688A299,299,0,0,1,263.96160830011075,-140.44667793728303Q0,0,148.80142242664635,-247.74813154453201L160.7721805026543,-252.0978103364286L161.87705694158754,-239.4093115063197Q0,0,256.04761508244655,-154.40407640535688Z" style="mix-blend-mode: multiply;"><title>Cardiomegaly → Atelectasis 14450</title></path><path fill="#aec7e8" fill-opacity="0.5" d="M264.4282965742591,-139.56602728040832A299,299,0,0,1,271.523899275817,-125.20292377598848Q0,0,215.72986101472355,192.30607652013515L217.78438897608964,204.86815252330283L205.1202994361609,203.58453467594168Q0,0,264.4282965742591,-139.56602728040832Z" style="mix-blend-mode: multiply;"><title>Cardiomegaly → Edema 14429</title></path><path fill="#2ca02c" fill-opacity="0.5" d="M276.34910105809274,114.15854915153773A299,299,0,0,1,269.83810894696154,128.79594310352994Q0,0,279.28982144363266,-74.28455854337285L290.90903597250707,-69.08641537629946L282.8676180369496,-59.219174817810334Q0,0,276.34910105809274,114.15854915153773Z" style="mix-blend-mode: multiply;"><title>Edema → Cardiomegaly 14429</title></path><path fill="#1f77b4" fill-opacity="0.5" d="M92.81314372108804,-284.2300482929429A299,299,0,0,1,105.29601622587313,-279.8459379139898Q0,0,224.6332153574117,181.82661674845818L228.187110531055,193.2139813457817L216.36968158459865,191.58590994898188Q0,0,92.81314372108804,-284.2300482929429Z" style="mix-blend-mode: multiply;"><title>Atelectasis → Edema 12063</title></path><path fill="#2ca02c" fill-opacity="0.5" d="M269.4072908324355,129.69468626866535A299,299,0,0,1,263.40613037361015,141.48572536337613Q0,0,136.84817384709987,-254.5458255692164L147.3752781681946,-260.1567361896425L147.97477017700294,-248.24275899019327Q0,0,269.4072908324355,129.69468626866535Z" style="mix-blend-mode: multiply;"><title>Edema → Atelectasis 12063</title></path><path fill="#2ca02c" fill-opacity="0.5" d="M262.93304879639777,142.36295814091218A299,299,0,0,1,256.3972284487162,153.82282419659592Q0,0,-64.43087008472382,281.7262199017433L-73.07438180864384,289.93298315866815L-76.7955950834666,278.6098285699488Q0,0,262.93304879639777,142.36295814091218Z" style="mix-blend-mode: multiply;"><title>Edema → Lung Opacity 12031</title></path><path fill="#8c564b" fill-opacity="0.5" d="M15.820686648348262,298.5811545861104A299,299,0,0,1,2.6343439775995443,298.98839481124963Q0,0,233.0064280442264,170.9649218116709L237.1080539014678,182.1558968989438L225.23805499636867,181.07683060362194Q0,0,15.820686648348262,298.5811545861104Z" style="mix-blend-mode: multiply;"><title>Lung Opacity → Edema 12031</title></path><path fill="#aec7e8" fill-opacity="0.5" d="M271.9397331175028,-124.29715021665359A299,299,0,0,1,276.50103138504767,-113.7900682968636Q0,0,-52.64595402282856,284.16439524512253L-60.0890117715283,292.8998304272659L-63.491426475154285,281.9394239267543Q0,0,271.9397331175028,-124.29715021665359Z" style="mix-blend-mode: multiply;"><title>Cardiomegaly → Lung Opacity 10557</title></path><path fill="#8c564b" fill-opacity="0.5" d="M1.637703205270937,298.9955148964804A299,299,0,0,1,-9.81566597352973,298.83884068423254Q0,0,275.95499662876426,-85.84777129092348L287.15250943994675,-83.33328460070003L279.04065509835203,-75.21511019923155Q0,0,1.637703205270937,298.9955148964804Z" style="mix-blend-mode: multiply;"><title>Lung Opacity → Cardiomegaly 10557</title></path><path fill="#e377c2" fill-opacity="0.5" d="M-146.7909956322895,260.4868587880801A299,299,0,0,1,-155.96067573559864,255.10246495103775Q0,0,-127.60197941391039,-259.3043286365501L-127.22589029802425,-270.5819152084542L-118.30082161179864,-263.6776736964535Q0,0,-146.7909956322895,260.4868587880801Z" style="mix-blend-mode: multiply;"><title>No Finding → Support Devices 9861</title></path><path fill="#9edae5" fill-opacity="0.5" d="M-184.60787028675912,-235.20402681116477A299,299,0,0,1,-176.12763141797467,-241.61965452151043Q0,0,-151.5656626658975,246.06675903227435L-161.31232840266867,251.7525227387197L-160.21956674987393,240.52170469727403Q0,0,-184.60787028675912,-235.20402681116477Z" style="mix-blend-mode: multiply;"><title>Support Devices → No Finding 9861</title></path><path fill="#8c564b" fill-opacity="0.5" d="M-10.81173906636688,298.80446164400024A299,299,0,0,1,-18.647907747606435,298.4179209374611Q0,0,-278.2961112062865,-77.92480020800944L-286.8432117473025,-84.39177610698907L-276.15574987417807,-85.19977588838131Q0,0,-10.81173906636688,298.80446164400024Z" style="mix-blend-mode: multiply;"><title>Lung Opacity → Pneumonia 7497</title></path><path fill="#bcbd22" fill-opacity="0.5" d="M-298.5526636877036,-16.34952613921658A299,299,0,0,1,-298.02091181632284,-24.177181807802075Q0,0,-44.2203162742297,285.59685507478383L-49.62314770439681,294.8534266579034L-51.69844864886016,284.3383027439342Q0,0,-298.5526636877036,-16.34952613921658Z" style="mix-blend-mode: multiply;"><title>Pneumonia → Lung Opacity 7497</title></path><path fill="#17becf" fill-opacity="0.5" d="M-282.2879079719101,-98.56235088938578A299,299,0,0,1,-280.34491691809933,-103.96022103758712Q0,0,-133.4088283081593,-256.3651390681738L-135.47415658286923,-266.5478435443818L-128.46561667615998,-258.87754891456683Q0,0,-282.2879079719101,-98.56235088938578Z" style="mix-blend-mode: multiply;"><title>Pneumothorax → Support Devices 5709</title></path><path fill="#9edae5" fill-opacity="0.5" d="M-175.32125557511281,-242.205403208859A299,299,0,0,1,-170.64199962927006,-245.52455674030696Q0,0,-258.6053371794724,-129.0127109330371L-266.26079551520564,-136.03745356191374L-256.08248081757927,-133.9505991711652Q0,0,-175.32125557511281,-242.205403208859Z" style="mix-blend-mode: multiply;"><title>Support Devices → Pneumothorax 5709</title></path><path fill="#ffbb78" fill-opacity="0.5" d="M298.8887183132744,8.156841609846321A299,299,0,0,1,298.70459538690756,13.287764851314309Q0,0,-261.2376352383971,123.59570354607877L-271.3649069964076,125.54715150424973L-263.32134532699047,119.09185150623802Q0,0,298.8887183132744,8.156841609846321Z" style="mix-blend-mode: multiply;"><title>Consolidation → Pleural Effusion 5198</title></path><path fill="#f7b6d2" fill-opacity="0.5" d="M-252.33818584175407,160.39463820867704A299,299,0,0,1,-255.05507108188465,156.0381707000398Q0,0,282.75194013524475,59.76905846468535L291.9940489421095,64.34652579893476L281.68397878871724,64.6152930331318Q0,0,-252.33818584175407,160.39463820867704Z" style="mix-blend-mode: multiply;"><title>Pleural Effusion → Consolidation 5198</title></path><path fill="#ffbb78" fill-opacity="0.5" d="M298.65864345098856,14.283371171235341A299,299,0,0,1,298.37417211796156,19.335289315679578Q0,0,-138.57412548414368,-253.610354178028L-141.14379266616726,-263.5895100185324L-134.262636029749,-255.91901954787014Q0,0,298.65864345098856,14.283371171235341Z" style="mix-blend-mode: multiply;"><title>Consolidation → Support Devices 5135</title></path><path fill="#9edae5" fill-opacity="0.5" d="M-169.82263794548714,-246.0919983283406A299,299,0,0,1,-165.63390116580155,-248.9305340543773Q0,0,283.9045528414151,54.02966662784561L293.2447389136594,58.382558178447084L282.94959911852504,58.82622169293188Q0,0,-169.82263794548714,-246.0919983283406Z" style="mix-blend-mode: multiply;"><title>Support Devices → Consolidation 5135</title></path><path fill="#1f77b4" fill-opacity="0.5" d="M106.22824931415043,-279.49339714499644A299,299,0,0,1,110.31151316325266,-277.9071248882143Q0,0,-279.652444712225,-72.9075453329483L-288.7686835981525,-77.54771030140145L-278.55431397122106,-76.99671530670902Q0,0,106.22824931415043,-279.49339714499644Z" style="mix-blend-mode: multiply;"><title>Atelectasis → Pneumonia 4559</title></path><path fill="#bcbd22" fill-opacity="0.5" d="M-297.93866568933936,-25.170448690003134A299,299,0,0,1,-297.53793562481314,-29.532640656137644Q0,0,132.2484964778888,-256.96563034642946L138.7683949503925,-264.8477535545504L135.99892906621025,-255.0005711617994Q0,0,-297.93866568933936,-25.170448690003134Z" style="mix-blend-mode: multiply;"><title>Pneumonia → Atelectasis 4559</title></path><path fill="#f7b6d2" fill-opacity="0.5" d="M-255.57378038304824,155.18712182625666A299,299,0,0,1,-257.7493769041084,151.54622629925132Q0,0,-280.8867114535061,-67.99746560596796L-290.0996974516072,-72.40970610688845L-279.8939157900342,-71.9749672019462Q0,0,-255.57378038304824,155.18712182625666Z" style="mix-blend-mode: multiply;"><title>Pleural Effusion → Pneumonia 4441</title></path><path fill="#bcbd22" fill-opacity="0.5" d="M-297.4378406845922,-30.524267868160056A299,299,0,0,1,-296.97493242543237,-34.74031535420882Q0,0,-259.0324254766164,128.15304347420383L-268.92913583932324,130.68328086145848L-260.8241990039943,124.46580740880118Q0,0,-297.4378406845922,-30.524267868160056Z" style="mix-blend-mode: multiply;"><title>Pneumonia → Pleural Effusion 4441</title></path><path fill="#bcbd22" fill-opacity="0.5" d="M-296.8574817294899,-35.73003696087598A299,299,0,0,1,-296.36893713834024,-39.5784423580632Q0,0,-142.6913033686988,-251.31691535378584L-145.93887969943566,-260.9652149081821L-139.4187219103689,-253.14703233670195Q0,0,-296.8574817294899,-35.73003696087598Z" style="mix-blend-mode: multiply;"><title>Pneumonia → Support Devices 4134</title></path><path fill="#9edae5" fill-opacity="0.5" d="M-164.8032140680731,-249.48126308970154A299,299,0,0,1,-161.55258720851506,-251.5984132824274Q0,0,-281.95819208378265,-63.408027227195106L-291.28282497578897,-67.49308019437174L-281.11180877217004,-67.06080053830931Q0,0,-164.8032140680731,-249.48126308970154Z" style="mix-blend-mode: multiply;"><title>Support Devices → Pneumonia 4134</title></path><path fill="#2ca02c" fill-opacity="0.5" d="M255.88306222318923,154.67662547160597A299,299,0,0,1,253.90709519865203,157.89929387993683Q0,0,-282.9351905710609,-58.89548315887616L-292.33430048822026,-62.78261509417193L-282.1679853501825,-62.46781606090588Q0,0,255.88306222318923,154.67662547160597Z" style="mix-blend-mode: multiply;"><title>Edema → Pneumonia 4050</title></path><path fill="#bcbd22" fill-opacity="0.5" d="M-296.23536274888727,-40.56611710572229A299,299,0,0,1,-295.6988256314154,-44.308063828176955Q0,0,235.70795987837522,167.2206854727436L242.76542091411784,174.5449810461223L233.5750155826363,170.1872853522589Q0,0,-296.23536274888727,-40.56611710572229Z" style="mix-blend-mode: multiply;"><title>Pneumonia → Edema 4050</title></path><path fill="#d62728" fill-opacity="0.5" d="M174.43443987277232,242.84486032500706A299,299,0,0,1,171.98670716176238,244.5844896138228Q0,0,-146.04022417801505,-249.38575124099432L-149.7959517586042,-258.77050225389667L-143.52823213981094,-250.83988235290764Q0,0,174.43443987277232,242.84486032500706Z" style="mix-blend-mode: multiply;"><title>Enlarged Cardiomediastinum → Support Devices 3391</title></path><path fill="#9edae5" fill-opacity="0.5" d="M-160.71302987044024,-252.13552314154978A299,299,0,0,1,-158.17268136216427,-253.73687723841653Q0,0,140.57070816793166,252.5091602401113L144.12102308452793,261.9735305428183L138.02762301250633,253.9082024778196Q0,0,-160.71302987044024,-252.13552314154978Z" style="mix-blend-mode: multiply;"><title>Support Devices → Enlarged Cardiomediastinum 3391</title></path><path fill="#1f77b4" fill-opacity="0.5" d="M111.23725568956593,-277.5378765982296A299,299,0,0,1,113.86634156712584,-276.4696299019453Q0,0,284.57408692978817,50.38441274915656L294.17025210473207,53.524412903257286L284.08307415060295,53.083019706333815Q0,0,111.23725568956593,-277.5378765982296Z" style="mix-blend-mode: multiply;"><title>Atelectasis → Consolidation 3251</title></path><path fill="#ffbb78" fill-opacity="0.5" d="M298.30806364017485,20.32976062941675A299,299,0,0,1,298.101679255104,23.16006963044587Q0,0,128.9422770692042,-258.64046316113917L134.67230016868658,-266.95387535541636L131.3912112497517,-257.40503026616074Q0,0,298.30806364017485,20.32976062941675Z" style="mix-blend-mode: multiply;"><title>Consolidation → Atelectasis 3251</title></path><path fill="#ffbb78" fill-opacity="0.5" d="M298.022823047059,24.153611387562385A299,299,0,0,1,297.79321586148137,26.83655318548127Q0,0,237.75333534485515,164.29957861296194L245.21217236257408,171.09059157425125L236.264051643605,166.43406472518765Q0,0,298.022823047059,24.153611387562385Z" style="mix-blend-mode: multiply;"><title>Consolidation → Edema 3128</title></path><path fill="#2ca02c" fill-opacity="0.5" d="M253.37935460007145,158.7447720791184A299,299,0,0,1,251.93946246314837,161.02020759451233Q0,0,285.1741113304578,46.86924606694321L294.82038504741513,49.819078278244696L284.74045369558485,49.435554302874806Q0,0,253.37935460007145,158.7447720791184Z" style="mix-blend-mode: multiply;"><title>Edema → Consolidation 3128</title></path><path fill="#f7b6d2" fill-opacity="0.5" d="M-258.2530981166455,150.6862213779158A299,299,0,0,1,-259.58562234223683,148.37892260423513Q0,0,-260.1656128530131,-125.83661585093627L-268.58513474140193,-131.3888328433699L-259.03394205788743,-128.149978002148Q0,0,-258.2530981166455,150.6862213779158Z" style="mix-blend-mode: multiply;"><title>Pleural Effusion → Pneumothorax 3104</title></path><path fill="#17becf" fill-opacity="0.5" d="M-279.99682601938497,-104.89412480720867A299,299,0,0,1,-279.0509881969599,-107.38503613772336Q0,0,-257.4438718725295,131.31508989937385L-266.95465156326435,134.67076152133444L-258.6038103884056,129.015771332801Q0,0,-279.99682601938497,-104.89412480720867Z" style="mix-blend-mode: multiply;"><title>Pneumothorax → Pleural Effusion 3104</title></path><path fill="#1f77b4" fill-opacity="0.5" d="M114.7872727033299,-276.088540191967A299,299,0,0,1,117.20607224898947,-275.07042121603087Q0,0,-261.6704314341713,-122.67675131439803L-270.1651656164968,-128.10848249593332L-260.5836220992365,-124.96869965572303Q0,0,114.7872727033299,-276.088540191967Z" style="mix-blend-mode: multiply;"><title>Atelectasis → Pneumothorax 3070</title></path><path fill="#17becf" fill-opacity="0.5" d="M-278.69148845753875,-108.31460779286208A299,299,0,0,1,-277.730079609056,-110.75650265491144Q0,0,125.80065454041198,-260.1830035133039L131.33369464877026,-268.6121007138427L128.07942744322514,-259.06883306529875Q0,0,-278.69148845753875,-108.31460779286208Z" style="mix-blend-mode: multiply;"><title>Pneumothorax → Atelectasis 3070</title></path><path fill="#aec7e8" fill-opacity="0.5" d="M276.87879479487776,-112.86776773258157A299,299,0,0,1,277.848746245765,-110.4584727834695Q0,0,-283.62264081372797,-55.49051826976425L-293.18446182502066,-58.684506851238105L-283.12993662399055,-57.95204040665958Q0,0,276.87879479487776,-112.86776773258157Z" style="mix-blend-mode: multiply;"><title>Cardiomegaly → Pneumonia 3047</title></path><path fill="#bcbd22" fill-opacity="0.5" d="M-295.54948958909546,-45.29347859929894A299,299,0,0,1,-295.14490942435947,-47.85898495462114Q0,0,274.90322436970416,-89.15838284278195L284.81339252586884,-91.00731529885597L275.667304839157,-86.76714264463993Q0,0,-295.54948958909546,-45.29347859929894Z" style="mix-blend-mode: multiply;"><title>Pneumonia → Cardiomegaly 3047</title></path><path fill="#1f77b4" fill-opacity="0.5" d="M118.12232081083539,-274.67820686443633A299,299,0,0,1,120.20254665108921,-273.77426427367624Q0,0,143.31944600055175,250.95923254205042L147.29273696373275,260.2034773744053L141.41162286237878,252.0391892532357Q0,0,118.12232081083539,-274.67820686443633Z" style="mix-blend-mode: multiply;"><title>Atelectasis → Enlarged Cardiomediastinum 2768</title></path><path fill="#d62728" fill-opacity="0.5" d="M171.1704715586745,245.15641877458768A299,299,0,0,1,169.30586545814083,246.44781176036014Q0,0,122.95224778760915,-261.5410957459159L128.23205313201836,-270.10653555504206L124.9326805762232,-260.60089279209956Q0,0,171.1704715586745,245.15641877458768Z" style="mix-blend-mode: multiply;"><title>Enlarged Cardiomediastinum → Atelectasis 2768</title></path><path fill="#c5b0d5" fill-opacity="0.5" d="M109.58872301538078,278.1929398598357A299,299,0,0,1,107.61725407844962,278.96151459406445Q0,0,-41.244846489513,286.0417148565162L-43.71889977115777,295.7865071344524L-43.268082852060026,285.7426692083408Q0,0,109.58872301538078,278.1929398598357Z" style="mix-blend-mode: multiply;"><title>Lung Lesion → Lung Opacity 2639</title></path><path fill="#8c564b" fill-opacity="0.5" d="M-19.642528709254858,298.35410348427604A299,299,0,0,1,-21.75343872396237,298.2076254955309Q0,0,86.57024847985957,275.7292006265121L88.5557878277881,285.58514044361584L84.61679141940624,276.3349391768705Q0,0,-19.642528709254858,298.35410348427604Z" style="mix-blend-mode: multiply;"><title>Lung Opacity → Lung Lesion 2639</title></path><path fill="#ffbb78" fill-opacity="0.5" d="M297.70210644463117,27.829046308300075A299,299,0,0,1,297.4984186108456,29.928095897435306Q0,0,-38.27168690886431,286.45467002852274L-40.64088812167812,296.22511408164104L-40.291146734522655,286.1776083043835Q0,0,297.70210644463117,27.829046308300075Z" style="mix-blend-mode: multiply;"><title>Consolidation → Lung Opacity 2633</title></path><path fill="#8c564b" fill-opacity="0.5" d="M-22.747341449168584,298.1334574599016A299,299,0,0,1,-24.8495598294648,297.96560099495014Q0,0,285.6455303910645,43.90479435787687L295.36742860365575,46.46592428935766L285.3287575622132,45.91840707171545Q0,0,-22.747341449168584,298.1334574599016Z" style="mix-blend-mode: multiply;"><title>Lung Opacity → Consolidation 2633</title></path><path fill="#d62728" fill-opacity="0.5" d="M168.48343368628437,247.01079444688125A299,299,0,0,1,166.8799505851866,248.096920764216Q0,0,-256.14322082264613,133.83441420875695L-265.45335744309847,137.60637711307788L-257.00472547437647,132.1725050221883Q0,0,168.48343368628437,247.01079444688125Z" style="mix-blend-mode: multiply;"><title>Enlarged Cardiomediastinum → Pleural Effusion 2487</title></path><path fill="#f7b6d2" fill-opacity="0.5" d="M-260.0787756939878,147.51281447222271A299,299,0,0,1,-261.0287960982291,145.82512680436503Q0,0,145.77457529839182,249.54112526109498L149.98174943250652,258.6628594080813L144.15517900815453,250.4801077234017Q0,0,-260.0787756939878,147.51281447222271Z" style="mix-blend-mode: multiply;"><title>Pleural Effusion → Enlarged Cardiomediastinum 2487</title></path><path fill="#aec7e8" fill-opacity="0.5" d="M278.21539687048465,-109.53169835348449A299,299,0,0,1,278.87310308778535,-107.84615141111647Q0,0,286.044974312318,41.22223514882887L295.81233112474155,43.543825676509854L285.7902925164297,42.95240043785132Q0,0,278.21539687048465,-109.53169835348449Z" style="mix-blend-mode: multiply;"><title>Cardiomegaly → Consolidation 2379</title></path><path fill="#ffbb78" fill-opacity="0.5" d="M297.3970057084668,30.91958918935034A299,299,0,0,1,297.2044596101685,32.71863670490744Q0,0,274.0544167489366,-91.73427200561513L283.8231278820023,-94.05015725280082L274.60450307186704,-90.07422990319125Q0,0,297.3970057084668,30.91958918935034Z" style="mix-blend-mode: multiply;"><title>Consolidation → Cardiomegaly 2379</title></path><path fill="#d62728" fill-opacity="0.5" d="M166.05203527078933,248.65180792109382A299,299,0,0,1,164.6762917698322,249.56505951141693Q0,0,-35.73337998929728,286.78236618477865L-37.78898859620319,296.60241459043453L-37.316627156720976,286.58065066861417Q0,0,166.05203527078933,248.65180792109382Z" style="mix-blend-mode: multiply;"><title>Enlarged Cardiomediastinum → Lung Opacity 2245</title></path><path fill="#8c564b" fill-opacity="0.5" d="M-25.842638607172837,297.881113919327A299,299,0,0,1,-27.48733085273175,297.73385202659176Q0,0,147.97876336718224,248.24037865004854L152.38936121128933,257.25178831179227L146.60556765088387,249.05382457164174Q0,0,-25.842638607172837,297.881113919327Z" style="mix-blend-mode: multiply;"><title>Lung Opacity → Enlarged Cardiomediastinum 2245</title></path><path fill="#8c564b" fill-opacity="0.5" d="M-28.479622481039247,297.64057368466666A299,299,0,0,1,-29.904670246293577,297.5007742804385Q0,0,-262.65820201895946,-120.54737206661731L-271.4473081688292,-125.36889122863255L-262.0778994580161,-121.80383662132331Q0,0,-28.479622481039247,297.64057368466666Z" style="mix-blend-mode: multiply;"><title>Lung Opacity → Pneumothorax 2059</title></path><path fill="#17becf" fill-opacity="0.5" d="M-277.3593490070967,-111.68165255922538A299,299,0,0,1,-276.8213350148158,-113.00862126676495Q0,0,-33.40290510618623,287.06313927508546L-35.26976199266615,296.91251891589326L-34.77724202034797,286.8998839969409Q0,0,-277.3593490070967,-111.68165255922538Z" style="mix-blend-mode: multiply;"><title>Pneumothorax → Lung Opacity 2059</title></path><path fill="#ffbb78" fill-opacity="0.5" d="M297.0937465554277,33.70913463231131A299,299,0,0,1,296.9308494938424,35.115105280564194Q0,0,-284.0610513726208,-53.200743350833875L-293.75905514003915,-55.73703906049776L-283.80603318554773,-54.54480293743639Q0,0,297.0937465554277,33.70913463231131Z" style="mix-blend-mode: multiply;"><title>Consolidation → Pneumonia 2045</title></path><path fill="#bcbd22" fill-opacity="0.5" d="M-294.9837400775134,-48.84253361448419A299,299,0,0,1,-294.74922990686724,-50.23834660205996Q0,0,286.36820454171806,38.91338365591863L296.18102004511,40.960998096215064L286.1807923710812,40.268524654624436Q0,0,-294.9837400775134,-48.84253361448419Z" style="mix-blend-mode: multiply;"><title>Pneumonia → Consolidation 2045</title></path><path fill="#aec7e8" fill-opacity="0.5" d="M279.2310402998565,-106.91597697753096A299,299,0,0,1,279.6209764860574,-105.89197093728951Q0,0,-263.49535494906655,-118.70635164246868L-272.3873474967378,-123.3131498409291L-263.0585666375133,-119.67117664089774Q0,0,279.2310402998565,-106.91597697753096Z" style="mix-blend-mode: multiply;"><title>Cardiomegaly → Pneumothorax 1774</title></path><path fill="#17becf" fill-opacity="0.5" d="M-276.4431024132953,-113.93072951628245A299,299,0,0,1,-276.02372821220104,-114.94303573438879Q0,0,273.4057545085267,-93.64984464281413L283.0432219514733,-96.37185536934021L273.74711388538407,-92.64727540204598Q0,0,-276.4431024132953,-113.93072951628245Z" style="mix-blend-mode: multiply;"><title>Pneumothorax → Cardiomegaly 1774</title></path><path fill="#2ca02c" fill-opacity="0.5" d="M251.4013297694003,161.85910969166127A299,299,0,0,1,250.89185045766553,162.64771555090593Q0,0,149.582599261149,247.27726542947394L154.3566159648892,256.07622909568886L148.80540766018885,247.74573790700217Q0,0,251.4013297694003,161.85910969166127Z" style="mix-blend-mode: multiply;"><title>Edema → Enlarged Cardiomediastinum 1641</title></path><path fill="#d62728" fill-opacity="0.5" d="M163.84349491121117,250.11259299619428A299,299,0,0,1,163.05733003661342,250.62583091399603Q0,0,238.81191564739302,162.75708569774295L246.8106272347067,168.77652172032302L238.29967874206397,163.50615618816647Q0,0,163.84349491121117,250.11259299619428Z" style="mix-blend-mode: multiply;"><title>Enlarged Cardiomediastinum → Edema 1641</title></path><path fill="#c5b0d5" fill-opacity="0.5" d="M106.68678621203958,279.31868832526504A299,299,0,0,1,105.83125845281917,279.6439606612176Q0,0,-255.28219144125785,135.46956386195748L-264.3296949623295,139.75268284051594L-255.69568391817907,134.6874798398673Q0,0,106.68678621203958,279.31868832526504Z" style="mix-blend-mode: multiply;"><title>Lung Lesion → Pleural Effusion 1621</title></path><path fill="#f7b6d2" fill-opacity="0.5" d="M-261.5134287954534,144.95422228981576A299,299,0,0,1,-261.95592575118405,144.15301926716668Q0,0,88.33160528989028,275.1699974686758L90.95221737904447,284.830992263544L87.48886316787058,275.4391018384892Q0,0,-261.5134287954534,144.95422228981576Z" style="mix-blend-mode: multiply;"><title>Pleural Effusion → Lung Lesion 1621</title></path><path fill="#aec7e8" fill-opacity="0.5" d="M279.9723956204302,-104.95931445354107A299,299,0,0,1,280.2562222184437,-104.19908784555788Q0,0,151.07521946921256,246.3681758310705L155.9567039354903,255.1048931274699L150.40602427250766,246.77728392730526Q0,0,279.9723956204302,-104.95931445354107Z" style="mix-blend-mode: multiply;"><title>Cardiomegaly → Enlarged Cardiomediastinum 1533</title></path><path fill="#d62728" fill-opacity="0.5" d="M162.2210062740886,251.16796197648716A299,299,0,0,1,161.5387434955829,251.60730186119056Q0,0,272.8344282838654,-95.30149391807188L282.4086042951251,-98.21598759916563L273.0920700183505,-94.56067519372068Q0,0,162.2210062740886,251.16796197648716Z" style="mix-blend-mode: multiply;"><title>Enlarged Cardiomediastinum → Cardiomegaly 1533</title></path><path fill="#1f77b4" fill-opacity="0.5" d="M121.1144580507303,-273.3720688934367A299,299,0,0,1,121.66418740610008,-273.1278555966296Q0,0,89.80116169995145,274.69392304406585L92.62254315388309,284.29221674134357L89.24834618552048,274.87403060884Q0,0,121.1144580507303,-273.3720688934367Z" style="mix-blend-mode: multiply;"><title>Atelectasis → Lung Lesion 1355</title></path><path fill="#c5b0d5" fill-opacity="0.5" d="M104.89852569258663,279.99517729332723A299,299,0,0,1,104.3350144744563,280.2056472568228Q0,0,121.55252132128295,-262.1945547879266L126.03129718302452,-271.1403919196919L122.07976268216227,-261.94948280816845Q0,0,104.89852569258663,279.99517729332723Z" style="mix-blend-mode: multiply;"><title>Lung Lesion → Atelectasis 1355</title></path><path fill="#c5b0d5" fill-opacity="0.5" d="M103.40041774149779,280.5518732977624A299,299,0,0,1,102.9254941396552,280.72645521237894Q0,0,-147.2916940601725,-248.6486614902331L-152.17056480215712,-257.38127206110494L-146.87069714224026,-248.89756592010366Q0,0,103.40041774149779,280.5518732977624Z" style="mix-blend-mode: multiply;"><title>Lung Lesion → Support Devices 1274</title></path><path fill="#9edae5" fill-opacity="0.5" d="M-157.32601460134052,-254.262708885237A299,299,0,0,1,-156.89550271052292,-254.52858627119332Q0,0,91.18053065396128,274.2391489734134L94.09545689186264,283.8081129783143L90.71630751957696,274.39306031678996Q0,0,-157.32601460134052,-254.262708885237Z" style="mix-blend-mode: multiply;"><title>Support Devices → Lung Lesion 1274</title></path><path fill="#ff9896" fill-opacity="0.5" d="M133.07772682432716,267.75234569144254A299,299,0,0,1,132.64767708845295,267.9656578053194Q0,0,-148.5179288601959,-247.91818167911322L-153.45100438973762,-256.6199315169824L-148.11970311050774,-248.15630870573298Q0,0,133.07772682432716,267.75234569144254Z" style="mix-blend-mode: multiply;"><title>Fracture → Support Devices 1252</title></path><path fill="#9edae5" fill-opacity="0.5" d="M-156.04620401990738,-255.05015626534606A299,299,0,0,1,-155.63651813361366,-255.30036079732702Q0,0,116.13442950658191,264.63898859234774L119.93309237938547,273.8924120020812L115.70940012379522,264.82510213911263Q0,0,-156.04620401990738,-255.05015626534606Z" style="mix-blend-mode: multiply;"><title>Support Devices → Fracture 1252</title></path><path fill="#1f77b4" fill-opacity="0.5" d="M122.5739359939223,-272.7207916807185A299,299,0,0,1,122.8815391836387,-272.5823312833388Q0,0,117.31396315473651,264.1182198352267L121.21910728605121,273.3256812463344L117.01591264430567,264.2504043289626Q0,0,122.5739359939223,-272.7207916807185Z" style="mix-blend-mode: multiply;"><title>Atelectasis → Fracture 1131</title></path><path fill="#ff9896" fill-opacity="0.5" d="M131.75372295235292,268.40632721341467A299,299,0,0,1,131.45082544734402,268.55479978807284Q0,0,120.38152793930402,-262.7342530600047L124.70029445571633,-271.7551040231952L120.67786579931402,-262.59827247360704Q0,0,131.75372295235292,268.40632721341467Z" style="mix-blend-mode: multiply;"><title>Fracture → Atelectasis 1131</title></path><path fill="#2ca02c" fill-opacity="0.5" d="M250.34829856750375,163.48311657280087A299,299,0,0,1,250.23086359719875,163.66280855282946Q0,0,-263.9741027261864,-117.63788968654956L-273.0644476883627,-121.80643418411618L-263.88957819339225,-117.82737594003146Q0,0,250.34829856750375,163.48311657280087Z" style="mix-blend-mode: multiply;"><title>Edema → Pneumothorax 1027</title></path><path fill="#17becf" fill-opacity="0.5" d="M-275.63905200554075,-115.86247455275065A299,299,0,0,1,-275.5557991013378,-116.06033595343047Q0,0,239.46932689865423,161.78826123889667L247.69536040547635,167.47539650229575L239.35311153007646,161.9601432478707Q0,0,-275.63905200554075,-115.86247455275065Z" style="mix-blend-mode: multiply;"><title>Pneumothorax → Edema 1027</title></path><path fill="#ff9896" fill-opacity="0.5" d="M130.55491415744112,268.9914764250778A299,299,0,0,1,130.39572799795522,269.0686791878298Q0,0,-254.74850329440198,136.47050988862782L-263.6050909926134,141.11469095305424L-254.82920883153238,136.31975031628855Q0,0,130.55491415744112,268.9914764250778Z" style="mix-blend-mode: multiply;"><title>Fracture → Pleural Effusion 995</title></path><path fill="#f7b6d2" fill-opacity="0.5" d="M-262.43497961622387,143.27903361564165A299,299,0,0,1,-262.51971243780935,143.12372473342742Q0,0,118.34973068474343,263.6557248512702L122.36416958518498,272.8149739323853L118.1937038468592,263.72570669345254Q0,0,-262.43497961622387,143.27903361564165Z" style="mix-blend-mode: multiply;"><title>Pleural Effusion → Fracture 995</title></path><path fill="#ff9896" fill-opacity="0.5" d="M129.4981110198623,269.50183532266976Q0,0,-32.445845644438855,287.1728871262349L-33.56853926535369,297.1096652274887L-32.445845644438855,287.1728871262349Q0,0,129.4981110198623,269.50183532266976Z" style="mix-blend-mode: multiply;"><title>Fracture → Lung Opacity 845</title></path><path fill="#8c564b" fill-opacity="0.5" d="M-30.896169999567313,297.39943960834535Q0,0,119.22792262911648,263.2597623366424L123.3534562841032,272.3690966735504L119.22792262911648,263.2597623366424Q0,0,-30.896169999567313,297.39943960834535Z" style="mix-blend-mode: multiply;"><title>Lung Opacity → Fracture 845</title></path><path fill="#aec7e8" fill-opacity="0.5" d="M280.6013833278146,-103.26598507987457Q0,0,120.10323309260149,262.8615860119242L124.25905430687835,271.95714262133333L120.10323309260149,262.8615860119242Q0,0,280.6013833278146,-103.26598507987457Z" style="mix-blend-mode: multiply;"><title>Cardiomegaly → Fracture 842</title></path><path fill="#ff9896" fill-opacity="0.5" d="M128.60065378373523,269.9312354033817Q0,0,272.5158112582307,-96.2087969692397L281.94542410453624,-99.53782108582239L272.5158112582307,-96.2087969692397Q0,0,128.60065378373523,269.9312354033817Z" style="mix-blend-mode: multiply;"><title>Fracture → Cardiomegaly 842</title></path><path fill="#aec7e8" fill-opacity="0.5" d="M280.9335458607383,-102.35889218877092Q0,0,92.06767629605828,273.9425906671765L95.25340903986653,283.42157304320335L92.06767629605828,273.9425906671765Q0,0,280.9335458607383,-102.35889218877092Z" style="mix-blend-mode: multiply;"><title>Cardiomegaly → Lung Lesion 796</title></path><path fill="#c5b0d5" fill-opacity="0.5" d="M102.01633445274588,281.0581212219734Q0,0,272.2035620994723,-97.08872632988201L281.6223704766167,-100.44819782918587L272.2035620994723,-97.08872632988201Q0,0,102.01633445274588,281.0581212219734Z" style="mix-blend-mode: multiply;"><title>Lung Lesion → Cardiomegaly 796</title></path><path fill="#8c564b" fill-opacity="0.5" d="M-31.812267482345614,297.3028416238763Q0,0,-288.9516426426354,-5.286607052043791L-298.94996937767473,-5.469534631699285L-288.9516426426354,-5.286607052043791Q0,0,-31.812267482345614,297.3028416238763Z" style="mix-blend-mode: multiply;"><title>Lung Opacity → Pleural Other 717</title></path><path fill="#c7c7c7" fill-opacity="0.5" d="M-298.9903421373732,2.4031871705079166Q0,0,-31.560954060795314,287.27148514736433L-32.653028595770934,297.211674944851L-31.560954060795314,287.27148514736433Q0,0,-298.9903421373732,2.4031871705079166Z" style="mix-blend-mode: multiply;"><title>Pleural Other → Lung Opacity 717</title></path><path fill="#2ca02c" fill-opacity="0.5" d="M249.73323756522902,164.42113627873053Q0,0,92.87181312829902,273.6710184258872L96.08537067599103,283.1406038385477L92.87181312829902,273.6710184258872Q0,0,249.73323756522902,164.42113627873053Z" style="mix-blend-mode: multiply;"><title>Edema → Lung Lesion 693</title></path><path fill="#c5b0d5" fill-opacity="0.5" d="M101.19046322021407,281.35651787950195Q0,0,239.95901327265665,161.06108142320724L248.2620933166932,166.6341292233182L239.95901327265665,161.06108142320724Q0,0,101.19046322021407,281.35651787950195Z" style="mix-blend-mode: multiply;"><title>Lung Lesion → Edema 693</title></path><path fill="#c5b0d5" fill-opacity="0.5" d="M100.46315207321454,281.61703619545847Q0,0,-284.2132811528543,-52.38139761717531L-294.04765074291845,-54.19390272503605L-284.2132811528543,-52.38139761717531Q0,0,100.46315207321454,281.61703619545847Z" style="mix-blend-mode: multiply;"><title>Lung Lesion → Pneumonia 617</title></path><path fill="#bcbd22" fill-opacity="0.5" d="M-294.60313606979736,-51.088082933698544Q0,0,93.57861857074231,273.4301412543824L96.816633054159,282.8913918168178L93.57861857074231,273.4301412543824Q0,0,-294.60313606979736,-51.088082933698544Z" style="mix-blend-mode: multiply;"><title>Pneumonia → Lung Lesion 617</title></path><path fill="#d62728" fill-opacity="0.5" d="M160.8259553468297,252.06350804267473Q0,0,-264.30600382687044,-116.89027479251789L-273.45154029146806,-120.9349209791102L-264.30600382687044,-116.89027479251789Q0,0,160.8259553468297,252.06350804267473Z" style="mix-blend-mode: multiply;"><title>Enlarged Cardiomediastinum → Pneumothorax 590</title></path><path fill="#17becf" fill-opacity="0.5" d="M-275.2262019714601,-116.83979522562103Q0,0,151.77192679187363,245.9395906272151L157.02355055629832,254.44961106414294L151.77192679187363,245.9395906272151Q0,0,-275.2262019714601,-116.83979522562103Z" style="mix-blend-mode: multiply;"><title>Pneumothorax → Enlarged Cardiomediastinum 590</title></path><path fill="#c7c7c7" fill-opacity="0.5" d="M-298.9954402019227,1.651283881856988Q0,0,-149.20341216124217,-247.5062459806671L-154.3661599868907,-256.0704759453961L-149.20341216124217,-247.5062459806671Q0,0,-298.9954402019227,1.651283881856988Z" style="mix-blend-mode: multiply;"><title>Pleural Other → Support Devices 558</title></path><path fill="#9edae5" fill-opacity="0.5" d="M-154.92944192547293,-255.73006867527627Q0,0,-288.9640236242114,-4.559939791947665L-298.96277876691767,-4.7177231757520826L-288.9640236242114,-4.559939791947665Q0,0,-154.92944192547293,-255.73006867527627Z" style="mix-blend-mode: multiply;"><title>Support Devices → Pleural Other 558</title></path><path fill="#ffbb78" fill-opacity="0.5" d="M296.832965527759,35.933140358118635Q0,0,-264.5686236184214,-116.29464044681554L-273.723247273038,-120.31867644843544L-264.5686236184214,-116.29464044681554Q0,0,296.832965527759,35.933140358118635Z" style="mix-blend-mode: multiply;"><title>Consolidation → Pneumothorax 552</title></path><path fill="#17becf" fill-opacity="0.5" d="M-274.9623272064219,-117.45943392179521Q0,0,286.47434004755434,38.124172047642155L296.386946969615,39.44334755102077L286.47434004755434,38.124172047642155Q0,0,-274.9623272064219,-117.45943392179521Z" style="mix-blend-mode: multiply;"><title>Pneumothorax → Consolidation 552</title></path><path fill="#f7b6d2" fill-opacity="0.5" d="M-262.9007223236815,142.42264637931186Q0,0,-288.9729724350165,-3.9523666417969614L-298.9720372251555,-4.089126733208621L-288.9729724350165,-3.9523666417969614Q0,0,-262.9007223236815,142.42264637931186Z" style="mix-blend-mode: multiply;"><title>Pleural Effusion → Pleural Other 508</title></path><path fill="#c7c7c7" fill-opacity="0.5" d="M-298.9982512273193,1.0226255447902983Q0,0,-254.38340650374258,137.14985415796713L-263.18560050041185,141.89552385201443L-254.38340650374258,137.14985415796713Q0,0,-298.9982512273193,1.0226255447902983Z" style="mix-blend-mode: multiply;"><title>Pleural Other → Pleural Effusion 508</title></path><path fill="#ffbb78" fill-opacity="0.5" d="M296.75805566917205,36.546633161654995Q0,0,152.29838210729972,245.61393040196018L157.56822231862498,254.11268231898302L152.29838210729972,245.61393040196018Q0,0,296.75805566917205,36.546633161654995Z" style="mix-blend-mode: multiply;"><title>Consolidation → Enlarged Cardiomediastinum 496</title></path><path fill="#d62728" fill-opacity="0.5" d="M160.28566544968723,252.40741956478013Q0,0,286.5525327328351,37.53193286252974L296.4678452841443,38.830615660541156L286.5525327328351,37.53193286252974Q0,0,160.28566544968723,252.40741956478013Z" style="mix-blend-mode: multiply;"><title>Enlarged Cardiomediastinum → Consolidation 496</title></path><path fill="#ffbb78" fill-opacity="0.5" d="M296.6870787848388,37.11842240881007Q0,0,94.17055916001986,273.2268394347254L97.42905601676796,282.6810553321207L94.17055916001986,273.2268394347254Q0,0,296.6870787848388,37.11842240881007Z" style="mix-blend-mode: multiply;"><title>Consolidation → Lung Lesion 481</title></path><path fill="#c5b0d5" fill-opacity="0.5" d="M99.85302631203122,281.8339460326396Q0,0,286.62432527460027,36.979672265721064L296.5421219969048,38.2592457005211L286.62432527460027,36.979672265721064Q0,0,99.85302631203122,281.8339460326396Z" style="mix-blend-mode: multiply;"><title>Lung Lesion → Consolidation 481</title></path><path fill="#d62728" fill-opacity="0.5" d="M159.80695021675547,252.71078066125204Q0,0,-284.32442181575277,-51.77473475680846L-294.1626371034951,-53.566248070192835L-284.32442181575277,-51.77473475680846Q0,0,159.80695021675547,252.71078066125204Z" style="mix-blend-mode: multiply;"><title>Enlarged Cardiomediastinum → Pneumonia 465</title></path><path fill="#bcbd22" fill-opacity="0.5" d="M-294.4934373933134,-51.716683306942706Q0,0,152.7636590570932,245.32481421879888L158.0495988168542,253.81356211564312L152.7636590570932,245.32481421879888Q0,0,-294.4934373933134,-51.716683306942706Z" style="mix-blend-mode: multiply;"><title>Pneumonia → Enlarged Cardiomediastinum 465</title></path><path fill="#aec7e8" fill-opacity="0.5" d="M281.1868597976739,-101.6609555194288Q0,0,-288.9800119651257,-3.398924040899685L-298.9793203376214,-3.5165338693045185L-288.9800119651257,-3.398924040899685Q0,0,281.1868597976739,-101.6609555194288Z" style="mix-blend-mode: multiply;"><title>Cardiomegaly → Pleural Other 463</title></path><path fill="#c7c7c7" fill-opacity="0.5" d="M-298.9996613889549,0.4499881001839796Q0,0,271.96162973163587,-97.76436955104148L281.37206674657136,-101.14721970851697L271.96162973163587,-97.76436955104148Q0,0,-298.9996613889549,0.4499881001839796Z" style="mix-blend-mode: multiply;"><title>Pleural Other → Cardiomegaly 463</title></path><path fill="#2ca02c" fill-opacity="0.5" d="M249.35899841579715,164.98815081414324Q0,0,120.7773573921946,262.5525279660398L124.95650470680341,271.6373905254183L120.7773573921946,262.5525279660398Q0,0,249.35899841579715,164.98815081414324Z" style="mix-blend-mode: multiply;"><title>Edema → Fracture 459</title></path><path fill="#ff9896" fill-opacity="0.5" d="M127.90756948968327,270.26034423725923Q0,0,240.32435367707564,160.51543548735702L248.64007525759726,166.06960280525865L240.32435367707564,160.51543548735702Q0,0,127.90756948968327,270.26034423725923Z" style="mix-blend-mode: multiply;"><title>Fracture → Edema 459</title></path><path fill="#ff9896" fill-opacity="0.5" d="M127.43401959994067,270.4839563608199Q0,0,-264.79314734117753,-115.78250783755485L-273.9555399827408,-119.78882298764326L-264.79314734117753,-115.78250783755485Q0,0,127.43401959994067,270.4839563608199Z" style="mix-blend-mode: multiply;"><title>Fracture → Pneumothorax 429</title></path><path fill="#17becf" fill-opacity="0.5" d="M-274.73453975653416,-117.99123977976232Q0,0,121.2370258092833,262.34058697220144L125.43207860545226,271.41811593317726L121.2370258092833,262.34058697220144Q0,0,-274.73453975653416,-117.99123977976232Z" style="mix-blend-mode: multiply;"><title>Pneumothorax → Fracture 429</title></path><path fill="#1f77b4" fill-opacity="0.5" d="M123.52528496076697,-272.2912117115815Q0,0,-288.9851081211681,-2.9338173420998888L-298.9845928312431,-3.035333513106805L-288.9851081211681,-2.9338173420998888Q0,0,123.52528496076697,-272.2912117115815Z" style="mix-blend-mode: multiply;"><title>Atelectasis → Pleural Other 353</title></path><path fill="#c7c7c7" fill-opacity="0.5" d="M-298.9999983678905,-0.031241022416672586Q0,0,119.76037321757163,-263.01797088181627L123.90433076835265,-272.11893873239814L119.76037321757163,-263.01797088181627Q0,0,-298.9999983678905,-0.031241022416672586Z" style="mix-blend-mode: multiply;"><title>Pleural Other → Atelectasis 353</title></path><path fill="#d62728" fill-opacity="0.5" d="M159.40001488379716,252.96765653941858Q0,0,94.61880303402191,273.0719357832455L97.89281005942058,282.52079169270036L94.61880303402191,273.0719357832455Q0,0,159.40001488379716,252.96765653941858Z" style="mix-blend-mode: multiply;"><title>Enlarged Cardiomediastinum → Lung Lesion 351</title></path><path fill="#c5b0d5" fill-opacity="0.5" d="M99.39039675737334,281.9974273506975Q0,0,153.15830212243057,245.07862920086336L158.45789735158044,253.5588585849763L153.15830212243057,245.07862920086336Q0,0,99.39039675737334,281.9974273506975Z" style="mix-blend-mode: multiply;"><title>Lung Lesion → Enlarged Cardiomediastinum 351</title></path><path fill="#2ca02c" fill-opacity="0.5" d="M249.10487627295603,165.3715834629253Q0,0,-288.9887529349423,-2.549642544925818L-298.98836376314097,-2.6378654703557776L-288.9887529349423,-2.549642544925818Q0,0,249.10487627295603,165.3715834629253Z" style="mix-blend-mode: multiply;"><title>Edema → Pleural Other 321</title></path><path fill="#c7c7c7" fill-opacity="0.5" d="M-298.9996926307796,-0.4287268353213978Q0,0,240.57101523998907,160.14551703497963L248.89527182268765,165.68688440643223L240.57101523998907,160.14551703497963Q0,0,-298.9996926307796,-0.4287268353213978Z" style="mix-blend-mode: multiply;"><title>Pleural Other → Edema 321</title></path><path fill="#c5b0d5" fill-opacity="0.5" d="M99.05159553881842,282.11660961597835Q0,0,-264.9497924428706,-115.42360020584952L-274.1176053301672,-119.41749640674398L-264.9497924428706,-115.42360020584952Q0,0,99.05159553881842,282.11660961597835Z" style="mix-blend-mode: multiply;"><title>Lung Lesion → Pneumothorax 258</title></path><path fill="#17becf" fill-opacity="0.5" d="M-274.5744064561377,-118.36340363161113Q0,0,94.94674317406113,272.9580846222344L98.23209760914975,282.4030010451491L94.94674317406113,272.9580846222344Q0,0,-274.5744064561377,-118.36340363161113Z" style="mix-blend-mode: multiply;"><title>Pneumothorax → Lung Lesion 258</title></path><path fill="#bcbd22" fill-opacity="0.5" d="M-294.4205194782337,-52.13019959838068Q0,0,-265.0646289203789,-115.15963917667437L-274.2364153882121,-119.14440177794339L-265.0646289203789,-115.15963917667437Q0,0,-294.4205194782337,-52.13019959838068Z" style="mix-blend-mode: multiply;"><title>Pneumonia → Pneumothorax 247</title></path><path fill="#17becf" fill-opacity="0.5" d="M-274.456374145199,-118.63683530451468Q0,0,-284.3968504948405,-51.37539711394282L-294.23757196525025,-53.15309251580935L-284.3968504948405,-51.37539711394282Q0,0,-274.456374145199,-118.63683530451468Z" style="mix-blend-mode: multiply;"><title>Pneumothorax → Pneumonia 247</title></path><path fill="#d62728" fill-opacity="0.5" d="M159.12749663281343,253.13917084357757Q0,0,121.55981363548473,262.19117397217286L125.76603556058801,271.2635329331477L121.55981363548473,262.19117397217286Q0,0,159.12749663281343,253.13917084357757Z" style="mix-blend-mode: multiply;"><title>Enlarged Cardiomediastinum → Fracture 195</title></path><path fill="#ff9896" fill-opacity="0.5" d="M127.10102085715941,270.6405928479095Q0,0,153.4221432798267,244.91354791318574L158.73086796078957,253.3880651420157L153.4221432798267,244.91354791318574Q0,0,127.10102085715941,270.6405928479095Z" style="mix-blend-mode: multiply;"><title>Fracture → Enlarged Cardiomediastinum 195</title></path><path fill="#c7c7c7" fill-opacity="0.5" d="M-298.9991329676923,-0.720058725574438Q0,0,-284.43931227680906,-51.139785211671345L-294.28150301303083,-52.90932795255963L-284.43931227680906,-51.139785211671345Q0,0,-298.9991329676923,-0.720058725574438Z" style="mix-blend-mode: multiply;"><title>Pleural Other → Pneumonia 173</title></path><path fill="#bcbd22" fill-opacity="0.5" d="M-294.3772338124716,-52.37407959016959Q0,0,-288.99110001546575,-2.2680634583453405L-298.9907920575234,-2.3465431627863556L-288.99110001546575,-2.2680634583453405Q0,0,-294.3772338124716,-52.37407959016959Z" style="mix-blend-mode: multiply;"><title>Pneumonia → Pleural Other 173</title></path><path fill="#ffbb78" fill-opacity="0.5" d="M296.64057852456364,37.48822712015296Q0,0,121.7387160203624,262.1081551987911L125.95112833940608,271.17764153784964L121.7387160203624,262.1081551987911Q0,0,296.64057852456364,37.48822712015296Z" style="mix-blend-mode: multiply;"><title>Consolidation → Fracture 151</title></path><path fill="#ff9896" fill-opacity="0.5" d="M126.9162943160199,270.7272691050708Q0,0,286.67019938077635,36.62235365164188L296.58958344239494,37.88956312055683L286.67019938077635,36.62235365164188Q0,0,126.9162943160199,270.7272691050708Z" style="mix-blend-mode: multiply;"><title>Fracture → Consolidation 151</title></path><path fill="#c5b0d5" fill-opacity="0.5" d="M98.82397883798119,282.1964230932601Q0,0,-288.99249041421575,-2.0833828715353664L-298.9922305669568,-2.155472244252853L-288.99249041421575,-2.0833828715353664Q0,0,98.82397883798119,282.1964230932601Z" style="mix-blend-mode: multiply;"><title>Lung Lesion → Pleural Other 151</title></path><path fill="#c7c7c7" fill-opacity="0.5" d="M-298.9986117596527,-0.9111343481975391Q0,0,95.1669085360401,272.88140193075265L98.45988114974391,282.32366497333925L95.1669085360401,272.88140193075265Q0,0,-298.9986117596527,-0.9111343481975391Z" style="mix-blend-mode: multiply;"><title>Pleural Other → Lung Lesion 151</title></path><path fill="#ff9896" fill-opacity="0.5" d="M126.7587495682154,270.8010698056831Q0,0,-288.9936537156766,-1.9152315952888888L-298.9934341210634,-1.9815025847452516L-288.9936537156766,-1.9152315952888888Q0,0,126.7587495682154,270.8010698056831Z" style="mix-blend-mode: multiply;"><title>Fracture → Pleural Other 144</title></path><path fill="#ff9896" fill-opacity="0.5" d="M126.60490177089969,270.87303086055067Q0,0,-284.4712315527441,-50.9619310747254L-294.3145267621816,-52.72531969322801L-284.4712315527441,-50.9619310747254Q0,0,126.60490177089969,270.87303086055067Z" style="mix-blend-mode: multiply;"><title>Fracture → Pneumonia 144</title></path><path fill="#c7c7c7" fill-opacity="0.5" d="M-298.9980310008098,-1.08510720151335Q0,0,121.89120362623173,262.0372768873706L126.10889233302176,271.1043106897017L121.89120362623173,262.0372768873706Q0,0,-298.9980310008098,-1.08510720151335Z" style="mix-blend-mode: multiply;"><title>Pleural Other → Fracture 144</title></path><path fill="#bcbd22" fill-opacity="0.5" d="M-294.34442966203767,-52.5581271254004Q0,0,122.0400330731999,261.96799485336425L126.26287158784349,271.03263135348067L122.0400330731999,261.96799485336425Q0,0,-294.34442966203767,-52.5581271254004Z" style="mix-blend-mode: multiply;"><title>Pneumonia → Fracture 144</title></path><path fill="#c7c7c7" fill-opacity="0.5" d="M-298.9974474203961,-1.2354902215176742Q0,0,-265.14587846355715,-114.9724451065932L-274.32047633426845,-118.9507304043992L-265.14587846355715,-114.9724451065932Q0,0,-298.9974474203961,-1.2354902215176742Z" style="mix-blend-mode: multiply;"><title>Pleural Other → Pneumothorax 111</title></path><path fill="#17becf" fill-opacity="0.5" d="M-274.3725348104147,-118.83060271541062Q0,0,-288.99458044209155,-1.7698799675322843L-298.99439291413626,-1.8311214889001834L-288.99458044209155,-1.7698799675322843Q0,0,-274.3725348104147,-118.83060271541062Z" style="mix-blend-mode: multiply;"><title>Pneumothorax → Pleural Other 111</title></path><path fill="#d62728" fill-opacity="0.5" d="M158.97968063691516,253.23203025009389Q0,0,-288.9952952433274,-1.6490382718487702L-298.9951324489789,-1.7060984196636064L-288.9952952433274,-1.6490382718487702Q0,0,158.97968063691516,253.23203025009389Z" style="mix-blend-mode: multiply;"><title>Enlarged Cardiomediastinum → Pleural Other 101</title></path><path fill="#c7c7c7" fill-opacity="0.5" d="M-298.99690466765674,-1.3605142998889275Q0,0,153.56510368820477,244.82393455140559L158.87877509610112,253.29535097186945L153.56510368820477,244.82393455140559Q0,0,-298.99690466765674,-1.3605142998889275Z" style="mix-blend-mode: multiply;"><title>Pleural Other → Enlarged Cardiomediastinum 101</title></path><path fill="#ffbb78" fill-opacity="0.5" d="M296.6222798833737,37.6327394271199Q0,0,-288.9959141759406,-1.5367464372491193L-298.9957727979454,-1.5899210544549711L-288.9959141759406,-1.5367464372491193Q0,0,296.6222798833737,37.6327394271199Z" style="mix-blend-mode: multiply;"><title>Consolidation → Pleural Other 96</title></path><path fill="#c7c7c7" fill-opacity="0.5" d="M-298.9963534566537,-1.4766921222133698Q0,0,286.68800696529763,36.482689898984496L296.6080072063114,37.745066712098144L286.68800696529763,36.482689898984496Q0,0,-298.9963534566537,-1.4766921222133698Z" style="mix-blend-mode: multiply;"><title>Pleural Other → Consolidation 96</title></path><path fill="#ff9896" fill-opacity="0.5" d="M126.48093911136425,270.93093592557375Q0,0,95.2955339632069,272.8365100324135L98.5929572837331,282.2772197221164L95.2955339632069,272.8365100324135Q0,0,126.48093911136425,270.93093592557375Z" style="mix-blend-mode: multiply;"><title>Fracture → Lung Lesion 88</title></path><path fill="#c5b0d5" fill-opacity="0.5" d="M98.69094076576798,282.2429772567737Q0,0,122.15989482514237,261.9121228509863L126.38688080525111,270.97482606382323L122.15989482514237,261.9121228509863Q0,0,98.69094076576798,282.2429772567737Z" style="mix-blend-mode: multiply;"><title>Lung Lesion → Fracture 88</title></path></g></svg>