<svg width="900" height="900" viewBox="-450,-450,900,900"><g font-size="10" font-family="sans-serif"><g><path fill="#1f77b4" fill-opacity="0.5" d="M1.8982025386783973e-14,-310A310,310,0,0,1,233.54330758631534,-203.85662481666793L226.0096525028858,-197.28060466129156A300,300,0,0,0,1.8369701987210297e-14,-300Z"></path><text dy="0.35em" transform="
        rotate(-65.55862213812651)
        translate(315)
        
      ">Atelectasis</text><title>Atelectasis
        108139 outgoing →
        0 incoming ←</title></g><g><path fill="#aec7e8" fill-opacity="0.5" d="M240.20753584032545,-195.9600462480012A310,310,0,0,1,309.99077136568764,-2.3920008582678585L299.9910690635687,-2.314839540259218A300,300,0,0,0,232.45890565192784,-189.63875443354954Z"></path><text dy="0.35em" transform="
        rotate(-19.824745566325447)
        translate(315)
        
      ">Cardiomegaly</text><title>Cardiomegaly
        71307 outgoing →
        14450 incoming ←</title></g><g><path fill="#ffbb78" fill-opacity="0.5" d="M309.8982888132464,7.940440203270714A310,310,0,0,1,302.0364276516164,69.8140127155708L292.2933170822094,67.56194778926206A300,300,0,0,0,299.9015698192707,7.684296970907142Z"></path><text dy="0.35em" transform="
        rotate(7.241387054416549)
        translate(315)
        
      ">Consolidation</text><title>Consolidation
        19915 outgoing →
        5630 incoming ←</title></g><g><path fill="#2ca02c" fill-opacity="0.5" d="M299.54194234210127,79.84124734697777A310,310,0,0,1,189.55146427338696,245.29623395359113L183.4369009097293,237.3834522131527A300,300,0,0,0,289.87929904074315,77.26572323901075Z"></path><text dy="0.35em" transform="
        rotate(33.61500003128553)
        translate(315)
        
      ">Edema</text><title>Edema
        53073 outgoing →
        29620 incoming ←</title></g><g><path fill="#d62728" fill-opacity="0.5" d="M181.27114061295353,251.47718302239437A310,310,0,0,1,147.6031759911817,272.60466327140523L142.8417832172726,263.81096445619863A300,300,0,0,0,175.42368446414858,243.36501582812357Z"></path><text dy="0.35em" transform="
        rotate(57.89071244208762)
        translate(315)
        
      ">Enlarged Cardiomediastinum</text><title>Enlarged Cardiomediastinum
        9825 outgoing →
        6438 incoming ←</title></g><g><path fill="#ff9896" fill-opacity="0.5" d="M138.43604236152174,277.3724250448825A310,310,0,0,1,123.64373003334522,284.27491627549773L119.65522261291473,275.1047576859655A300,300,0,0,0,133.9703635756662,268.4249274627895Z"></path><text dy="0.35em" transform="
        rotate(64.98497632549532)
        translate(315)
        
      ">Fracture</text><title>Fracture
        3897 outgoing →
        2778 incoming ←</title></g><g><path fill="#c5b0d5" fill-opacity="0.5" d="M114.10096957568605,288.2376948663869A310,310,0,0,1,90.27126616603977,296.5655045766112L87.359289838103,286.9988753967205A300,300,0,0,0,110.4202931377607,278.93970470940667Z"></path><text dy="0.35em" transform="
        rotate(70.7369183534978)
        translate(315)
        
      ">Lung Lesion</text><title>Lung Lesion
        6560 outgoing →
        3764 incoming ←</title></g><g><path fill="#8c564b" fill-opacity="0.5" d="M80.33743383636819,299.40924622427275A310,310,0,0,1,-142.64760578704207,275.2301955876656L-138.04607011649233,266.35180218161184A300,300,0,0,0,77.74590371261438,289.75088344284455Z"></path><text dy="0.35em" transform="
        rotate(96.1886032535528)
        translate(315)
        rotate(180)
      " text-anchor="end">Lung Opacity</text><title>Lung Opacity
        43756 outgoing →
        50079 incoming ←</title></g><g><path fill="#e377c2" fill-opacity="0.5" d="M-151.74100545020966,270.32326437981516A310,310,0,0,1,-172.29157854306845,257.71226583757647L-166.73378568684043,249.39896693959014A300,300,0,0,0,-146.8461343066545,261.6031590772405Z"></path><text dy="0.35em" transform="
        rotate(121.53564174528111)
        translate(315)
        rotate(180)
      " text-anchor="end">No Finding</text><title>No Finding
        9861 outgoing →
        0 incoming ←</title></g><g><path fill="#f7b6d2" fill-opacity="0.5" d="M-180.78468799501377,251.8271164639454A310,310,0,0,1,-309.71630664108585,13.259313730539853L-299.7254580397605,12.831593932780503A300,300,0,0,0,-174.95292386614236,243.70366109414073Z"></path><text dy="0.35em" transform="
        rotate(151.61143219167994)
        translate(315)
        rotate(180)
      " text-anchor="end">Pleural Effusion</text><title>Pleural Effusion
        31358 outgoing →
        83399 incoming ←</title></g><g><path fill="#c7c7c7" fill-opacity="0.5" d="M-309.98615323888663,2.9299829619794666A310,310,0,0,1,-309.93979928436255,-6.109076818067177L-299.9417412429315,-5.9120098239359775A300,300,0,0,0,-299.9865999086,2.835467382560774Z"></path><text dy="0.35em" transform="
        rotate(180.2938206783931)
        translate(315)
        rotate(180)
      " text-anchor="end">Pleural Other</text><title>Pleural Other
        842 outgoing →
        2854 incoming ←</title></g><g><path fill="#bcbd22" fill-opacity="0.5" d="M-309.5640282641174,-16.435096741203914A310,310,0,0,1,-296.06970137301465,-91.88433995460777L-286.5190658448529,-88.9203289883301A300,300,0,0,0,-299.5780918685007,-15.904932330197338Z"></path><text dy="0.35em" transform="
        rotate(190.1403077026107)
        translate(315)
        rotate(180)
      " text-anchor="end">Pneumonia</text><title>Pneumonia
        4381 outgoing →
        27038 incoming ←</title></g><g><path fill="#17becf" fill-opacity="0.5" d="M-292.8429892588979,-101.70046038201112A310,310,0,0,1,-274.4506955647389,-144.1416515238777L-265.59744732071505,-139.49192082955906A300,300,0,0,0,-283.39644121828826,-98.41980036968818Z"></path><text dy="0.35em" transform="
        rotate(203.4299553843873)
        translate(315)
        rotate(180)
      " text-anchor="end">Pneumothorax</text><title>Pneumothorax
        5709 outgoing →
        13221 incoming ←</title></g><g><path fill="#9edae5" fill-opacity="0.5" d="M-269.4944050697916,-153.208242715851A310,310,0,0,1,-10.331419859394742,-309.82779372368924L-9.998148251027171,-299.83334876486055A300,300,0,0,0,-260.80103716431444,-148.2660413379203Z"></path><text dy="0.35em" transform="
        rotate(238.854239581638)
        translate(315)
        rotate(180)
      " text-anchor="end">Support Devices</text><title>Support Devices
        0 outgoing →
        129352 incoming ←</title></g></g><g><path fill="#1f77b4" fill-opacity="0.5" d="M0.49833310262351865,-298.99958472231833A299,299,0,0,1,55.048537428780925,-293.88885403661044Q0,0,-292.239501371317,67.79434960410796L-296.23095641071137,40.59828153992746L-299.7036557745114,13.331118309922989Q0,0,0.49833310262351865,-298.99958472231833Z" style="mix-blend-mode: multiply;"><title>Atelectasis → Pleural Effusion 23681</title></path><path fill="#f7b6d2" fill-opacity="0.5" d="M-174.77432394495224,242.60036209697813A299,299,0,0,1,-215.49355306412784,207.27645449446953Q0,0,-64.16013904590805,-293.05882781040697L-37.356654469963566,-296.6571764963925L-10.49785638130202,-299.81626875704654Q0,0,-174.77432394495224,242.60036209697813Z" style="mix-blend-mode: multiply;"><title>Pleural Effusion → Support Devices 23305</title></path><path fill="#1f77b4" fill-opacity="0.5" d="M56.02785930318383,-293.7037265373094A299,299,0,0,1,105.70214966842096,-279.6927878145497Q0,0,-114.52726457247167,-277.2787508438883L-89.86785892885571,-285.1749777444425L-65.13664355138525,-292.84333297321245Q0,0,56.02785930318383,-293.7037265373094Z" style="mix-blend-mode: multiply;"><title>Atelectasis → Support Devices 22329</title></path><path fill="#aec7e8" fill-opacity="0.5" d="M231.99873174601845,-188.62022285067678A299,299,0,0,1,257.5434762179827,-151.89587834288787Q0,0,-155.47037244763692,-256.5715558883974L-135.3884549771097,-266.59138444239176L-115.45088910169667,-276.895453566193Q0,0,231.99873174601845,-188.62022285067678Z" style="mix-blend-mode: multiply;"><title>Cardiomegaly → Support Devices 19404</title></path><path fill="#1f77b4" fill-opacity="0.5" d="M106.63387000101731,-279.33889412075456A299,299,0,0,1,146.55148322577284,-260.6216851382978Q0,0,-96.90524266002055,283.91790000808777L-117.18165873470375,275.08082240713077L-137.60195892109945,266.58150892564936Q0,0,106.63387000101731,-279.33889412075456Z" style="mix-blend-mode: multiply;"><title>Atelectasis → Lung Opacity 19129</title></path><path fill="#8c564b" fill-opacity="0.5" d="M77.00533489066358,288.91379059916255A299,299,0,0,1,37.10325472310451,296.6889760152076Q0,0,-189.61258202369297,-232.4802545127399L-172.79183369362144,-244.01635643701403L-156.32474565999928,-256.0518968770521Q0,0,77.00533489066358,288.91379059916255Z" style="mix-blend-mode: multiply;"><title>Lung Opacity → Support Devices 17669</title></path><path fill="#2ca02c" fill-opacity="0.5" d="M288.784286550636,77.48958537403696A299,299,0,0,1,275.73998008400577,115.62207135003298Q0,0,-280.11115680306995,107.41387170401204L-285.75768400415654,87.99742060185973L-292.0118970731713,68.76810283647221Q0,0,288.784286550636,77.48958537403696Z" style="mix-blend-mode: multiply;"><title>Edema → Pleural Effusion 17520</title></path><path fill="#aec7e8" fill-opacity="0.5" d="M258.0483640790653,-151.03655781339214A299,299,0,0,1,274.69494861470156,-118.0833824277001Q0,0,-264.2663356883993,141.9975486472434L-271.620388539815,124.99345794672583L-279.7515550554524,108.34697708776277Q0,0,258.0483640790653,-151.03655781339214Z" style="mix-blend-mode: multiply;"><title>Cardiomegaly → Pleural Effusion 16083</title></path><path fill="#8c564b" fill-opacity="0.5" d="M36.11408717213084,296.81100503135616A299,299,0,0,1,-0.10556224724959297,298.9999813655713Q0,0,-244.54179704707036,173.77948525930628L-253.78708541890768,158.09211009590595L-263.79154325781946,142.87764592705872Q0,0,36.11408717213084,296.81100503135616Z" style="mix-blend-mode: multiply;"><title>Lung Opacity → Pleural Effusion 15814</title></path><path fill="#2ca02c" fill-opacity="0.5" d="M275.35304200586194,116.54056057063589A299,299,0,0,1,259.7745015417734,148.04799339647647Q0,0,-216.2782262632372,-207.903171799826L-203.00553282048736,-219.5216473249735L-190.3864613680816,-231.84692218733457Q0,0,275.35304200586194,116.54056057063589Z" style="mix-blend-mode: multiply;"><title>Edema → Support Devices 15331</title></path><path fill="#1f77b4" fill-opacity="0.5" d="M147.41940639330596,-260.13173320194A299,299,0,0,1,175.247653640334,-242.258663196092Q0,0,297.840682004174,-35.9294884918849L298.37404969247325,-19.33717844240733L299.9867943452883,-2.8148212088364346Q0,0,147.41940639330596,-260.13173320194Z" style="mix-blend-mode: multiply;"><title>Atelectasis → Cardiomegaly 14450</title></path><path fill="#aec7e8" fill-opacity="0.5" d="M275.08703307891636,-117.16707827644748A299,299,0,0,1,286.33032570476666,-86.11587880177635Q0,0,208.85586671301084,215.35836863135142L195.988678176157,225.80841000007675L183.8322850401705,237.07739448734773Q0,0,275.08703307891636,-117.16707827644748Z" style="mix-blend-mode: multiply;"><title>Cardiomegaly → Edema 14429</title></path><path fill="#1f77b4" fill-opacity="0.5" d="M176.05420742505697,-241.67315955218325A299,299,0,0,1,197.4758765826158,-224.50897124152408Q0,0,228.3757268761004,194.5366992981345L218.4745248868987,204.132020945867L209.57256630311386,214.66098726393423Q0,0,176.05420742505697,-241.67315955218325Z" style="mix-blend-mode: multiply;"><title>Atelectasis → Edema 12063</title></path><path fill="#2ca02c" fill-opacity="0.5" d="M259.2795659539889,148.9130843099797A299,299,0,0,1,244.57369731991744,172.0020539972282Q0,0,-69.56032283263802,291.82419619938844L-82.57001210012128,287.3729164374852L-95.95831305061148,284.2393395652348Q0,0,259.2795659539889,148.9130843099797Z" style="mix-blend-mode: multiply;"><title>Edema → Lung Opacity 12031</title></path><path fill="#aec7e8" fill-opacity="0.5" d="M286.6157873799679,-85.16096772912472A299,299,0,0,1,292.5020128354363,-61.996552220411964Q0,0,-45.04133355622722,296.59952506954L-56.67016197869123,293.5804706401788L-68.58719086747617,292.0544422687462Q0,0,286.6157873799679,-85.16096772912472Z" style="mix-blend-mode: multiply;"><title>Cardiomegaly → Lung Opacity 10557</title></path><path fill="#e377c2" fill-opacity="0.5" d="M-146.79099563228846,260.48685878808067A299,299,0,0,1,-165.76349639519742,248.8442550328204Q0,0,-231.78229112113206,-190.46513991447037L-223.78333596125935,-198.29780267579903L-216.97003400796208,-207.18109069744702Q0,0,-146.79099563228846,260.48685878808067Z" style="mix-blend-mode: multiply;"><title>No Finding → Support Devices 9861</title></path><path fill="#8c564b" fill-opacity="0.5" d="M-1.102226419667262,298.99796838259584A299,299,0,0,1,-17.780243048927282,298.4708745541532Q0,0,-291.15427839963456,-72.31311201703387L-288.05970307257775,-80.14117210110133L-286.66686838150054,-88.44267393257321Q0,0,-1.102226419667262,298.99796838259584Z" style="mix-blend-mode: multiply;"><title>Lung Opacity → Pneumonia 7497</title></path><path fill="#17becf" fill-opacity="0.5" d="M-282.287907971911,-98.56235088938328A299,299,0,0,1,-277.9327744471151,-110.24687246416127Q0,0,-240.12311421658285,-179.83573065141954L-235.53314858387154,-184.18777353062254L-232.415886066934,-189.69147556946768Q0,0,-282.287907971911,-98.56235088938328Z" style="mix-blend-mode: multiply;"><title>Pneumothorax → Support Devices 5709</title></path><path fill="#ffbb78" fill-opacity="0.5" d="M298.8887183132744,8.156841609846321A299,299,0,0,1,298.36935769880915,19.40944065139616Q0,0,-237.21153745913287,183.6591584873306L-239.82695488812232,178.56100276681514L-243.96117460463714,174.59365763258916Q0,0,298.8887183132744,8.156841609846321Z" style="mix-blend-mode: multiply;"><title>Consolidation → Pleural Effusion 5198</title></path><path fill="#ffbb78" fill-opacity="0.5" d="M298.30300207710786,20.403895505147727A299,299,0,0,1,297.3384238799091,31.477955534174654Q0,0,-247.20972423447083,-169.9627966465511L-243.194279494745,-173.9469528937827L-240.721231525925,-179.03432266647087Q0,0,298.30300207710786,20.403895505147727Z" style="mix-blend-mode: multiply;"><title>Consolidation → Support Devices 5135</title></path><path fill="#1f77b4" fill-opacity="0.5" d="M198.22314134704308,-223.84947226766064A299,299,0,0,1,205.4216230457791,-217.2624145710386Q0,0,-293.5663837133772,-61.79626488267866L-291.5439229400834,-66.35616773674246L-291.3937041377098,-71.34219781381027Q0,0,198.22314134704308,-223.84947226766064Z" style="mix-blend-mode: multiply;"><title>Atelectasis → Pneumonia 4559</title></path><path fill="#f7b6d2" fill-opacity="0.5" d="M-216.18327611432838,206.55699244633686A299,299,0,0,1,-222.62223036251228,199.60045728509874Q0,0,-295.55094407249857,-51.47464869093155L-293.7155418041291,-55.96588695542034L-293.77073995868403,-60.81736877017321Q0,0,-216.18327611432838,206.55699244633686Z" style="mix-blend-mode: multiply;"><title>Pleural Effusion → Pneumonia 4441</title></path><path fill="#bcbd22" fill-opacity="0.5" d="M-298.5526636877037,-16.349526139214724A299,299,0,0,1,-297.9460008157647,-25.083472604333224Q0,0,-252.62065260150604,-161.8110190289562L-249.3905089216676,-164.94051673191655L-247.77489245472157,-169.13782152153658Q0,0,-298.5526636877037,-16.349526139214724Z" style="mix-blend-mode: multiply;"><title>Pneumonia → Support Devices 4134</title></path><path fill="#2ca02c" fill-opacity="0.5" d="M243.99899946016237,172.81634257916608A299,299,0,0,1,238.95388556717933,179.7276844905853Q0,0,-297.0445503020377,-42.00637018191644L-295.42502059592954,-46.098342767333854L-295.72088396888813,-50.48919473173848Q0,0,243.99899946016237,172.81634257916608Z" style="mix-blend-mode: multiply;"><title>Edema → Pneumonia 4050</title></path><path fill="#d62728" fill-opacity="0.5" d="M174.43443987277263,242.84486032500683A299,299,0,0,1,168.6996880591092,246.8631508523685Q0,0,-256.8587258946471,-154.9954674555955L-254.1760698373488,-157.46595035765412L-253.15861821933237,-160.96805279706376Q0,0,174.43443987277263,242.84486032500683Z" style="mix-blend-mode: multiply;"><title>Enlarged Cardiomediastinum → Support Devices 3391</title></path><path fill="#1f77b4" fill-opacity="0.5" d="M206.14468852304154,-216.57647008328996A299,299,0,0,1,210.92597429835072,-211.92270611308143Q0,0,293.8293924617676,60.533363738921295L292.15858122368934,63.5953097119662L292.4055143135473,67.07469865030977Q0,0,206.14468852304154,-216.57647008328996Z" style="mix-blend-mode: multiply;"><title>Atelectasis → Consolidation 3251</title></path><path fill="#ffbb78" fill-opacity="0.5" d="M297.23184567716703,32.46890690098417A299,299,0,0,1,296.47113773260935,38.80546986614346Q0,0,233.1065592806502,188.84208222834422L230.30763641542347,190.6813903052448L229.02291258672093,193.7743675265002Q0,0,297.23184567716703,32.46890690098417Z" style="mix-blend-mode: multiply;"><title>Consolidation → Edema 3128</title></path><path fill="#f7b6d2" fill-opacity="0.5" d="M-223.2863271990048,198.8572756676984A299,299,0,0,1,-227.44302112354075,194.0893406197172Q0,0,-268.71154592078375,-133.39454669836584L-266.3945570273149,-135.7753290779318L-265.8295648625402,-139.04906488356013Q0,0,-223.2863271990048,198.8572756676984Z" style="mix-blend-mode: multiply;"><title>Pleural Effusion → Pneumothorax 3104</title></path><path fill="#1f77b4" fill-opacity="0.5" d="M211.63121020068021,-211.21844348682123A299,299,0,0,1,215.9965502035669,-206.7522437608792Q0,0,-271.8633412689467,-126.84763960785476L-269.62202823188,-129.2476765444056L-269.1547007458161,-132.4981021238802Q0,0,211.63121020068021,-211.21844348682123Z" style="mix-blend-mode: multiply;"><title>Atelectasis → Pneumothorax 3070</title></path><path fill="#aec7e8" fill-opacity="0.5" d="M292.707042617132,-61.02120289155628A299,299,0,0,1,293.90771445517936,-54.94775139833079Q0,0,-297.9684342595523,-34.85415592021786L-296.5996540990251,-37.81064913934514L-297.1829210307053,-41.01599014600992Q0,0,292.707042617132,-61.02120289155628Z" style="mix-blend-mode: multiply;"><title>Cardiomegaly → Pneumonia 3047</title></path><path fill="#1f77b4" fill-opacity="0.5" d="M216.6845230934654,-206.03110797099905A299,299,0,0,1,220.45978454935897,-201.9863445791577Q0,0,148.1338337884765,260.8761531591725L145.22807609862951,261.361446875186L143.2812695631555,263.5725285236881Q0,0,216.6845230934654,-206.03110797099905Z" style="mix-blend-mode: multiply;"><title>Atelectasis → Enlarged Cardiomediastinum 2768</title></path><path fill="#c5b0d5" fill-opacity="0.5" d="M109.58872301538128,278.19293985983546A299,299,0,0,1,104.70742320993574,280.06669835011695Q0,0,-38.85668228498928,297.4729537988343L-41.3179487067482,296.1314355394687L-44.05242007412314,296.7480147964144Q0,0,109.58872301538128,278.19293985983546Z" style="mix-blend-mode: multiply;"><title>Lung Lesion → Lung Opacity 2639</title></path><path fill="#ffbb78" fill-opacity="0.5" d="M296.3401393455774,39.793489576107014A299,299,0,0,1,295.60112070853614,44.9552826245976Q0,0,-32.669304318280695,298.2158891731954L-35.15087740069166,296.9266168903717L-37.864891738321,297.60082320727076Q0,0,296.3401393455774,39.793489576107014Z" style="mix-blend-mode: multiply;"><title>Consolidation → Lung Opacity 2633</title></path><path fill="#d62728" fill-opacity="0.5" d="M167.87587519382564,247.42411064386403A299,299,0,0,1,163.823764271364,250.12551701088108Q0,0,-233.56248702848106,188.27789209854302L-234.3044244009203,185.74831548671827L-236.59802355721848,184.44884182021283Q0,0,167.87587519382564,247.42411064386403Z" style="mix-blend-mode: multiply;"><title>Enlarged Cardiomediastinum → Pleural Effusion 2487</title></path><path fill="#aec7e8" fill-opacity="0.5" d="M294.08924046819965,-53.96775556605476A299,299,0,0,1,294.8872101063395,-49.4219922271407Q0,0,294.91373307826166,55.00809069440472L293.49880448673,57.09160853278039L294.0295375832326,59.55359794832225Q0,0,294.08924046819965,-53.96775556605476Z" style="mix-blend-mode: multiply;"><title>Cardiomegaly → Consolidation 2379</title></path><path fill="#d62728" fill-opacity="0.5" d="M162.98910396079717,250.67020562894277A299,299,0,0,1,159.36808220492247,252.98777514798036Q0,0,-27.382463177462075,298.74772084542326L-29.431098803316413,297.547996839551L-31.67507169924077,298.3231298991883Q0,0,162.98910396079717,250.67020562894277Z" style="mix-blend-mode: multiply;"><title>Enlarged Cardiomediastinum → Lung Opacity 2245</title></path><path fill="#8c564b" fill-opacity="0.5" d="M-18.77504534265945,298.409949017088A299,299,0,0,1,-22.626201803784436,298.1426755631176Q0,0,-273.8879609456345,-122.41480649432324L-272.1816921078048,-123.76641903736305L-272.28465560079906,-125.94072544000312Q0,0,-18.77504534265945,298.409949017088Z" style="mix-blend-mode: multiply;"><title>Lung Opacity → Pneumothorax 2059</title></path><path fill="#ffbb78" fill-opacity="0.5" d="M295.44962781702793,45.94036811758991A299,299,0,0,1,294.83736749523786,49.71847471994741Q0,0,-298.4919683635032,-30.042383768293334L-297.29926160016396,-31.845706963376962L-298.0829591854798,-33.8607360113095Q0,0,295.44962781702793,45.94036811758991Z" style="mix-blend-mode: multiply;"><title>Consolidation → Pneumonia 2045</title></path><path fill="#aec7e8" fill-opacity="0.5" d="M295.0503115145947,-48.438762114040706A299,299,0,0,1,295.55001631911676,-45.29004144146698Q0,0,-275.5743988505961,-118.56960275775823L-274.0218895315329,-119.63696777153955L-274.2944879465948,-121.50116823354145Q0,0,295.0503115145947,-48.438762114040706Z" style="mix-blend-mode: multiply;"><title>Cardiomegaly → Pneumothorax 1774</title></path><path fill="#2ca02c" fill-opacity="0.5" d="M238.35346687461626,180.52319748124117A299,299,0,0,1,236.6070429996608,182.80620121581396Q0,0,151.49881153389276,258.9364982072207L149.75159822680217,258.79617236064064L149.00259639034675,260.38092531699675Q0,0,238.35346687461626,180.52319748124117Z" style="mix-blend-mode: multiply;"><title>Edema → Enlarged Cardiomediastinum 1641</title></path><path fill="#c5b0d5" fill-opacity="0.5" d="M103.77328757020638,280.41416652314706A299,299,0,0,1,101.11720887081177,281.3828531914776Q0,0,-231.13558257858568,191.2494247469984L-231.26372607952374,189.52068224817842L-232.93359764885696,189.05538629290734Q0,0,103.77328757020638,280.41416652314706Z" style="mix-blend-mode: multiply;"><title>Lung Lesion → Pleural Effusion 1621</title></path><path fill="#aec7e8" fill-opacity="0.5" d="M295.6993409013389,-44.304624933676685A299,299,0,0,1,296.07615329327837,-41.712245816488384Q0,0,154.61939774155084,257.08528126293055L152.98007754320366,256.9009456480754L152.36108993692622,258.4300645691826Q0,0,295.6993409013389,-44.304624933676685Z" style="mix-blend-mode: multiply;"><title>Cardiomegaly → Enlarged Cardiomediastinum 1533</title></path><path fill="#1f77b4" fill-opacity="0.5" d="M221.13184634234744,-201.25035784620215A299,299,0,0,1,222.60644131084337,-199.61806603341807Q0,0,89.94547139417409,286.1989031699454L88.59578002195236,285.5727363777954L87.83749974332892,286.8528780382737Q0,0,221.13184634234744,-201.25035784620215Z" style="mix-blend-mode: multiply;"><title>Atelectasis → Lung Lesion 1355</title></path><path fill="#c5b0d5" fill-opacity="0.5" d="M100.17870600201903,281.7183466935745A299,299,0,0,1,98.2838989754212,282.3849769413897Q0,0,-258.4036232348552,-152.4059299997838L-257.03060706782514,-152.76212564096278L-257.3739495044704,-154.1384122030273Q0,0,100.17870600201903,281.7183466935745Z" style="mix-blend-mode: multiply;"><title>Lung Lesion → Support Devices 1274</title></path><path fill="#ff9896" fill-opacity="0.5" d="M133.07772682432727,267.7523456914425A299,299,0,0,1,131.32262495108554,268.6175127871534Q0,0,-259.89641008674386,-149.8461078040503L-258.54001470103503,-150.19341130152338L-258.91020648638886,-151.54373948525713Q0,0,133.07772682432727,267.7523456914425Z" style="mix-blend-mode: multiply;"><title>Fracture → Support Devices 1252</title></path><path fill="#1f77b4" fill-opacity="0.5" d="M223.2705969307719,-198.87493694826608A299,299,0,0,1,224.37875757264976,-197.6238172644028Q0,0,121.64832033196957,274.22925839598247L120.47847630538288,273.652949458129L120.11356414234847,274.9049503174178Q0,0,223.2705969307719,-198.87493694826608Z" style="mix-blend-mode: multiply;"><title>Atelectasis → Fracture 1131</title></path><path fill="#2ca02c" fill-opacity="0.5" d="M235.99637564168566,183.5938743095433A299,299,0,0,1,235.1180980693268,184.7172974040667Q0,0,-276.52605736000265,-116.33288271564709L-275.32703746600373,-116.60198300283656L-275.9680991604129,-117.65036440992655Q0,0,235.99637564168566,183.5938743095433Z" style="mix-blend-mode: multiply;"><title>Edema → Pneumothorax 1027</title></path><path fill="#ff9896" fill-opacity="0.5" d="M130.42650533046378,269.05376174155697A299,299,0,0,1,129.20993284246646,269.6401180366996Q0,0,-229.62715408498084,193.05794494615463L-229.29568930968105,191.89707362020457L-230.4968015912662,192.01881276634452Q0,0,130.42650533046378,269.05376174155697Z" style="mix-blend-mode: multiply;"><title>Fracture → Pleural Effusion 995</title></path><path fill="#ff9896" fill-opacity="0.5" d="M128.31041628115943,270.06931901598074A299,299,0,0,1,127.4094795835022,270.49551662136867Q0,0,-25.390224076357875,298.92362991465285L-25.80209693563635,297.884628327351L-26.38648716077678,298.8373358456305Q0,0,128.31041628115943,270.06931901598074Z" style="mix-blend-mode: multiply;"><title>Fracture → Lung Opacity 845</title></path><path fill="#aec7e8" fill-opacity="0.5" d="M296.2135489891885,-40.72509539865593A299,299,0,0,1,296.346712000936,-39.74451265563955Q0,0,123.46732165747673,273.4151065371648L122.60465043645175,272.70698504320615L122.56174034380786,273.82224125132166Q0,0,296.2135489891885,-40.72509539865593Z" style="mix-blend-mode: multiply;"><title>Cardiomegaly → Fracture 842</title></path><path fill="#aec7e8" fill-opacity="0.5" d="M296.47754709535394,-38.756471308959114A299,299,0,0,1,296.59046445766245,-37.882666125657835Q0,0,91.7410320756516,285.6284002575624L91.01569796635555,284.8107138499132L90.89896627481441,285.89749549474925Q0,0,296.47754709535394,-38.756471308959114Z" style="mix-blend-mode: multiply;"><title>Cardiomegaly → Lung Lesion 796</title></path><path fill="#8c564b" fill-opacity="0.5" d="M-23.619883180937578,298.06559868344226A299,299,0,0,1,-24.31236052262849,298.00991447570624Q0,0,-299.96294312061224,-4.715162183886288L-298.9574054308584,-5.046755200063194L-299.95117800242105,-5.412098942178122Q0,0,-23.619883180937578,298.06559868344226Z" style="mix-blend-mode: multiply;"><title>Lung Opacity → Pleural Other 717</title></path><path fill="#2ca02c" fill-opacity="0.5" d="M234.5010686744297,185.49999674002802A299,299,0,0,1,234.10465840330934,186.00002396201415Q0,0,93.30130890697858,285.1225451560163L92.68702500064464,284.27120043460235L92.69261530811103,285.32101056063595Q0,0,234.5010686744297,185.49999674002802Z" style="mix-blend-mode: multiply;"><title>Edema → Lung Lesion 693</title></path><path fill="#c5b0d5" fill-opacity="0.5" d="M97.34207144091064,282.7110205273092A299,299,0,0,1,96.90813642796428,282.86005920606584Q0,0,-298.634672659116,-28.589023869006596L-297.61727430799533,-28.722082680047176L-298.5904511701064,-29.04724548097958Q0,0,97.34207144091064,282.7110205273092Z" style="mix-blend-mode: multiply;"><title>Lung Lesion → Pneumonia 617</title></path><path fill="#d62728" fill-opacity="0.5" d="M158.52390580533321,253.51759561857207A299,299,0,0,1,158.18874785458834,253.7268611168267Q0,0,-277.0645680228932,-115.04444856788005L-276.0651978308879,-114.84340010027887L-276.9122966631659,-115.41048460486942Q0,0,158.52390580533321,253.51759561857207Z" style="mix-blend-mode: multiply;"><title>Enlarged Cardiomediastinum → Pneumothorax 590</title></path><path fill="#c7c7c7" fill-opacity="0.5" d="M-298.9909393406327,2.32770105600481A299,299,0,0,1,-298.99325685521603,2.0080724864411215Q0,0,-260.55356498624184,-148.70050360694904L-259.6057990425081,-148.34361834437257L-260.39445232017385,-148.97895556378663Q0,0,-298.9909393406327,2.32770105600481Z" style="mix-blend-mode: multiply;"><title>Pleural Other → Support Devices 558</title></path><path fill="#ffbb78" fill-opacity="0.5" d="M294.67000156921705,50.70098791145611A299,299,0,0,1,294.61804745289066,51.00202069571608Q0,0,-277.56295945673,-113.8367407194252L-276.5797548155492,-113.59858813458327L-277.44650956179396,-114.1202625828444Q0,0,294.67000156921705,50.70098791145611Z" style="mix-blend-mode: multiply;"><title>Consolidation → Pneumothorax 552</title></path><path fill="#f7b6d2" fill-opacity="0.5" d="M-228.08872082302176,193.3301203468245A299,299,0,0,1,-228.21907857801736,193.17622051639984Q0,0,-299.9794317000994,-3.5129128775701393L-298.9783023986628,-3.6020403681468514L-299.97699383953386,-3.7152613631185565Q0,0,-228.08872082302176,193.3301203468245Z" style="mix-blend-mode: multiply;"><title>Pleural Effusion → Pleural Other 508</title></path><path fill="#ffbb78" fill-opacity="0.5" d="M294.44640426665063,51.98379569096641A299,299,0,0,1,294.4162109393693,52.15452747465736Q0,0,155.6242382091634,256.4782573276292L155.03137012502341,255.66828954165985L155.47548809628992,256.5684559746588Q0,0,294.44640426665063,51.98379569096641Z" style="mix-blend-mode: multiply;"><title>Consolidation → Enlarged Cardiomediastinum 496</title></path><path fill="#ffbb78" fill-opacity="0.5" d="M294.2407271922933,53.13562327996568A299,299,0,0,1,294.21617234043714,53.27141760214548Q0,0,94.38263468089364,284.76642756949593L94.00252876873985,283.83890604545786L94.25119729069215,284.8099573562536Q0,0,294.2407271922933,53.13562327996568Z" style="mix-blend-mode: multiply;"><title>Consolidation → Lung Lesion 481</title></path><path fill="#d62728" fill-opacity="0.5" d="M157.34211439151665,254.25274637416777A299,299,0,0,1,157.25685601083646,254.30548802097655Q0,0,-298.7375452770895,-27.49325447848748L-297.73715547132065,-27.45152549215858L-298.72831014889204,-27.59341797580255Q0,0,157.34211439151665,254.25274637416777Z" style="mix-blend-mode: multiply;"><title>Enlarged Cardiomediastinum → Pneumonia 465</title></path><path fill="#aec7e8" fill-opacity="0.5" d="M296.7150920542943,-36.89382261587522A299,299,0,0,1,296.7268650534131,-36.799015687563774Q0,0,-299.99026245483066,-2.4171123850244878L-298.9899062326598,-2.4568213173303937L-299.9894748371514,-2.512963774129194Q0,0,296.7150920542943,-36.89382261587522Z" style="mix-blend-mode: multiply;"><title>Cardiomegaly → Pleural Other 463</title></path><path fill="#2ca02c" fill-opacity="0.5" d="M233.48335889135225,186.7793380457592A299,299,0,0,1,233.42956473255745,186.84656354551657Q0,0,124.45662550716516,272.9662037091208L124.00259849809538,272.07417291194724L124.37801772925769,273.0020305890424Q0,0,233.48335889135225,186.7793380457592Z" style="mix-blend-mode: multiply;"><title>Edema → Fracture 459</title></path><path fill="#ff9896" fill-opacity="0.5" d="M126.5071217013687,270.9187113486905A299,299,0,0,1,126.49323108161872,270.925197223389Q0,0,-277.94666130596755,-112.89664950239116L-277.01728779164154,-112.5274289431818L-277.9408725414189,-112.91090014216843Q0,0,126.5071217013687,270.9187113486905Z" style="mix-blend-mode: multiply;"><title>Fracture → Pneumothorax 429</title></path><path fill="#1f77b4" fill-opacity="0.5" d="M224.98227103000426,-196.93648144054396Q0,0,-299.9962530654766,-1.4993820975723078L-298.99626555525833,-1.4943841572470669L-299.9962530654766,-1.4993820975723078Q0,0,224.98227103000426,-196.93648144054396Z" style="mix-blend-mode: multiply;"><title>Atelectasis → Pleural Other 353</title></path><path fill="#d62728" fill-opacity="0.5" d="M156.48016847087266,254.78413780164442Q0,0,95.25109544712811,284.4771147493627L94.93359179563768,283.5288577001982L95.25109544712811,284.4771147493627Q0,0,156.48016847087266,254.78413780164442Z" style="mix-blend-mode: multiply;"><title>Enlarged Cardiomediastinum → Lung Lesion 351</title></path><path fill="#2ca02c" fill-opacity="0.5" d="M232.88055270553056,187.53039266094066Q0,0,-299.999179227372,-0.7017570114645221L-298.99918196328076,-0.699417821426307L-299.999179227372,-0.7017570114645221Q0,0,232.88055270553056,187.53039266094066Z" style="mix-blend-mode: multiply;"><title>Edema → Pleural Other 321</title></path><path fill="#c5b0d5" fill-opacity="0.5" d="M96.14847438372772,283.1191813948353Q0,0,-278.2487209510487,-112.15011943420046L-277.3212252145452,-111.77628570275313L-278.2487209510487,-112.15011943420046Q0,0,96.14847438372772,283.1191813948353Z" style="mix-blend-mode: multiply;"><title>Lung Lesion → Pneumothorax 258</title></path><path fill="#bcbd22" fill-opacity="0.5" d="M-297.8787157872895,-25.870266347975658Q0,0,-278.4715834309907,-111.59559678337133L-277.543344819554,-111.2236114607601L-278.4715834309907,-111.59559678337133Q0,0,-297.8787157872895,-25.870266347975658Z" style="mix-blend-mode: multiply;"><title>Pneumonia → Pneumothorax 247</title></path><path fill="#d62728" fill-opacity="0.5" d="M155.93104178629065,255.12057974111394Q0,0,125.1211726441941,272.66223089408953L124.70410206871345,271.7533567911092L125.1211726441941,272.66223089408953Q0,0,155.93104178629065,255.12057974111394Z" style="mix-blend-mode: multiply;"><title>Enlarged Cardiomediastinum → Fracture 195</title></path><path fill="#c7c7c7" fill-opacity="0.5" d="M-298.9971490649444,1.3056994429915774Q0,0,-298.80130564163267,-26.791411811541483L-297.8053012894939,-26.70210710550301L-298.80130564163267,-26.791411811541483Q0,0,-298.9971490649444,1.3056994429915774Z" style="mix-blend-mode: multiply;"><title>Pleural Other → Pneumonia 173</title></path><path fill="#ffbb78" fill-opacity="0.5" d="M294.09490223598743,53.93689348493281Q0,0,125.49320920789094,272.49120067023176L125.07489851053131,271.58289666799766L125.49320920789094,272.49120067023176Q0,0,294.09490223598743,53.93689348493281Z" style="mix-blend-mode: multiply;"><title>Consolidation → Fracture 151</title></path><path fill="#c5b0d5" fill-opacity="0.5" d="M95.69156289293005,283.27393948457103Q0,0,-299.99996583272633,-0.14317947841346992L-298.99996594661724,-0.14270221348542503L-299.99996583272633,-0.14317947841346992Q0,0,95.69156289293005,283.27393948457103Z" style="mix-blend-mode: multiply;"><title>Lung Lesion → Pleural Other 151</title></path><path fill="#ff9896" fill-opacity="0.5" d="M125.88747587593494,271.2071964708641Q0,0,-299.99992932011037,0.2059318547266686L-298.99992955570997,0.20524541521091305L-299.99992932011037,0.2059318547266686Q0,0,125.88747587593494,271.2071964708641Z" style="mix-blend-mode: multiply;"><title>Fracture → Pleural Other 144</title></path><path fill="#ff9896" fill-opacity="0.5" d="M125.57927859441844,271.35004106818457Q0,0,-298.83457438435073,-26.417743138352083L-297.8384591364029,-26.329683994557573L-298.83457438435073,-26.417743138352083Q0,0,125.57927859441844,271.35004106818457Z" style="mix-blend-mode: multiply;"><title>Fracture → Pneumonia 144</title></path><path fill="#c7c7c7" fill-opacity="0.5" d="M-298.9984242200442,0.9707285565365248Q0,0,-278.6289037216324,-111.20222124976328L-277.70014070922696,-110.83154717893073L-278.6289037216324,-111.20222124976328Q0,0,-298.9984242200442,0.9707285565365248Z" style="mix-blend-mode: multiply;"><title>Pleural Other → Pneumothorax 111</title></path><path fill="#d62728" fill-opacity="0.5" d="M155.63304419496924,255.30247855163245Q0,0,-299.9995901853407,0.49587158379327506L-298.9995915513896,0.49421867851396417L-299.9995901853407,0.49587158379327506Q0,0,155.63304419496924,255.30247855163245Z" style="mix-blend-mode: multiply;"><title>Enlarged Cardiomediastinum → Pleural Other 101</title></path><path fill="#ffbb78" fill-opacity="0.5" d="M294.04220890698736,54.22342096455745Q0,0,-299.9991142479669,0.7290064713944931L-298.9991172004736,0.7265764498231781L-299.9991142479669,0.7290064713944931Q0,0,294.04220890698736,54.22342096455745Z" style="mix-blend-mode: multiply;"><title>Consolidation → Pleural Other 96</title></path><path fill="#ff9896" fill-opacity="0.5" d="M125.33089066860771,271.46485563367776Q0,0,95.74359564864717,284.311737169376L95.42445032981836,283.36403137881143L95.74359564864717,284.311737169376Q0,0,125.33089066860771,271.46485563367776Z" style="mix-blend-mode: multiply;"><title>Fracture → Lung Lesion 88</title></path></g></svg>